<svg width="44" height="46" viewBox="0 0 44 46" fill="none" xmlns="http://www.w3.org/2000/svg">
<path fill-rule="evenodd" clip-rule="evenodd" d="M34.8679 29.8868C34.8679 32.3773 34.0377 41.5094 10.3773 41.5094L10.3773 39.0189C30.717 39.0189 32.3773 32.3774 32.3773 29.8868L34.8679 29.8868Z" fill="#C2D2F4"/>
<path fill-rule="evenodd" clip-rule="evenodd" d="M34.8679 29.8868C34.8679 32.3773 34.0377 41.5094 10.3773 41.5094L10.3773 39.0189C30.717 39.0189 32.3773 32.3774 32.3773 29.8868L34.8679 29.8868Z" fill="#B7C6E7"/>
<path fill-rule="evenodd" clip-rule="evenodd" d="M37.9196 10.3361C37.9325 10.2883 37.9332 10.2857 37.9332 10.3261C37.9332 7.95719 36.0033 6.0368 33.6226 6.0368C31.2419 6.0368 29.312 7.95719 29.312 10.3261C29.312 10.2857 29.3127 10.2883 29.3256 10.3361C29.3657 10.4848 29.5241 11.0711 30.1476 12.1684C30.8808 13.4585 31.9386 14.9059 33.12 16.3355C33.2875 16.5382 33.4553 16.738 33.6226 16.9342C33.7899 16.738 33.9577 16.5382 34.1252 16.3355C35.3066 14.9059 36.3644 13.4585 37.0976 12.1684C37.7211 11.0711 37.8794 10.4848 37.9196 10.3361ZM33.6226 25.7358C33.6226 25.7358 44 16.0291 44 10.3261C44 4.62316 39.3539 0 33.6226 0C27.8913 0 23.2452 4.62316 23.2452 10.3261C23.2452 16.0291 33.6226 25.7358 33.6226 25.7358Z" fill="#C2D2F4"/>
<path fill-rule="evenodd" clip-rule="evenodd" d="M37.9196 10.3361C37.9325 10.2883 37.9332 10.2857 37.9332 10.3261C37.9332 7.95719 36.0033 6.0368 33.6226 6.0368C31.2419 6.0368 29.312 7.95719 29.312 10.3261C29.312 10.2857 29.3127 10.2883 29.3256 10.3361C29.3657 10.4848 29.5241 11.0711 30.1476 12.1684C30.8808 13.4585 31.9386 14.9059 33.12 16.3355C33.2875 16.5382 33.4553 16.738 33.6226 16.9342C33.7899 16.738 33.9577 16.5382 34.1252 16.3355C35.3066 14.9059 36.3644 13.4585 37.0976 12.1684C37.7211 11.0711 37.8794 10.4848 37.9196 10.3361ZM33.6226 25.7358C33.6226 25.7358 44 16.0291 44 10.3261C44 4.62316 39.3539 0 33.6226 0C27.8913 0 23.2452 4.62316 23.2452 10.3261C23.2452 16.0291 33.6226 25.7358 33.6226 25.7358Z" fill="#B7C6E7"/>
<path fill-rule="evenodd" clip-rule="evenodd" d="M14.6744 20.2983C14.6873 20.2504 14.688 20.2479 14.688 20.2883C14.688 17.9194 12.758 15.999 10.3774 15.999C7.99668 15.999 6.06676 17.9194 6.06676 20.2883C6.06676 20.2479 6.06744 20.2504 6.08036 20.2983C6.12051 20.4469 6.27886 21.0333 6.9024 22.1305C7.63556 23.4207 8.6934 24.8681 9.87472 26.2976C10.0422 26.5003 10.2101 26.7001 10.3774 26.8964C10.5447 26.7001 10.7125 26.5003 10.88 26.2976C12.0613 24.8681 13.1192 23.4207 13.8523 22.1305C14.4759 21.0333 14.6342 20.4469 14.6744 20.2983ZM10.3774 35.698C10.3774 35.698 20.7547 25.9912 20.7547 20.2883C20.7547 14.5853 16.1086 9.96216 10.3774 9.96216C4.6461 9.96216 0 14.5853 0 20.2883C0 25.9912 10.3774 35.698 10.3774 35.698Z" fill="#C2D2F4"/>
<path fill-rule="evenodd" clip-rule="evenodd" d="M14.6744 20.2983C14.6873 20.2504 14.688 20.2479 14.688 20.2883C14.688 17.9194 12.758 15.999 10.3774 15.999C7.99668 15.999 6.06676 17.9194 6.06676 20.2883C6.06676 20.2479 6.06744 20.2504 6.08036 20.2983C6.12051 20.4469 6.27886 21.0333 6.9024 22.1305C7.63556 23.4207 8.6934 24.8681 9.87472 26.2976C10.0422 26.5003 10.2101 26.7001 10.3774 26.8964C10.5447 26.7001 10.7125 26.5003 10.88 26.2976C12.0613 24.8681 13.1192 23.4207 13.8523 22.1305C14.4759 21.0333 14.6342 20.4469 14.6744 20.2983ZM10.3774 35.698C10.3774 35.698 20.7547 25.9912 20.7547 20.2883C20.7547 14.5853 16.1086 9.96216 10.3774 9.96216C4.6461 9.96216 0 14.5853 0 20.2883C0 25.9912 10.3774 35.698 10.3774 35.698Z" fill="#B7C6E7"/>
</svg>
