<svg width="22" height="12" viewBox="0 0 22 12" fill="none" xmlns="http://www.w3.org/2000/svg">
<path fill-rule="evenodd" clip-rule="evenodd" d="M12.0789 11.9498C12.0789 11.9498 12.476 11.9077 12.6793 11.6988C12.8655 11.5075 12.859 11.1464 12.859 11.1464C12.859 11.1464 12.8343 9.46019 13.6531 9.21122C14.4601 8.96637 15.4964 10.8418 16.596 11.563C17.4267 12.1083 18.0573 11.9889 18.0573 11.9889L20.9959 11.9498C20.9959 11.9498 22.5325 11.8593 21.804 10.704C21.7437 10.6093 21.379 9.84907 19.6197 8.28737C17.7764 6.65263 18.0239 6.91703 20.2427 4.0889C21.5942 2.36672 22.1343 1.3153 21.9654 0.865724C21.8051 0.435692 20.8108 0.549887 20.8108 0.549887L17.5031 0.569434C17.5031 0.569434 17.2578 0.537542 17.076 0.641449C16.8984 0.743299 16.7833 0.980948 16.7833 0.980948C16.7833 0.980948 16.2603 2.31322 15.562 3.44694C14.0889 5.83784 13.5003 5.96438 13.2593 5.81623C12.6987 5.46953 12.8386 4.42532 12.8386 3.68356C12.8386 1.36571 13.2066 0.399685 12.123 0.14969C11.7636 0.0663587 11.4989 0.0118331 10.5789 0.00257405C9.39855 -0.00874257 8.4 0.00668918 7.83401 0.271087C7.4574 0.447009 7.16688 0.840004 7.34442 0.862638C7.56285 0.890415 8.05782 0.990207 8.32037 1.33176C8.65932 1.77311 8.64748 2.7628 8.64748 2.7628C8.64748 2.7628 8.84224 5.49114 8.19233 5.82961C7.74685 6.06211 7.13567 5.58784 5.82185 3.41814C5.14934 2.30705 4.64146 1.07868 4.64146 1.07868C4.64146 1.07868 4.54354 0.849263 4.36815 0.725809C4.15617 0.576636 3.86027 0.53034 3.86027 0.53034L0.717209 0.549887C0.717209 0.549887 0.244836 0.562233 0.0715967 0.75873C-0.0822743 0.932595 0.0597604 1.2937 0.0597604 1.2937C0.0597604 1.2937 2.52062 6.79872 5.30751 9.57335C7.86306 12.1165 10.764 11.9498 10.764 11.9498H12.0789Z" fill="white"/>
</svg>
