<svg width="131" height="42" viewBox="0 0 131 42" fill="none" xmlns="http://www.w3.org/2000/svg">
<path fill-rule="evenodd" clip-rule="evenodd" d="M71 15.5983V20.5072L72.9356 25H80L76.7559 18.4429C78.6929 17.4364 79.5641 15.4241 79.5641 13.4473C79.5641 10.1344 76.1281 8 71.21 8H71V12.6315C71.837 12.7702 72.3086 13.1864 72.3086 14.1582C72.3086 15.1994 71.8377 15.5116 71 15.5983Z" fill="black"/>
<path fill-rule="evenodd" clip-rule="evenodd" d="M70.9993 12.8573V8.5197H63.5407V24.4402H69.7315V19.7453C70.1659 19.7291 70.5162 19.7291 70.8992 19.9565L71 20.2326V15.6351C70.8165 15.6514 70.6156 15.6514 70.4002 15.6514H69.7663V12.7917H70.266C70.5322 12.7917 70.7824 12.8086 70.9993 12.8573ZM53.646 19.859V24.9924C58.8019 24.9437 62.4731 21.7267 62.4731 16.5121C62.4731 11.2813 58.8352 8.04805 53.646 8.01557V13.1489C55.4149 13.1652 56.3991 14.3189 56.3991 16.5121C56.3998 18.7053 55.4149 19.8421 53.646 19.859ZM53.646 13.1496V8.01624C53.6126 8.01624 53.5793 8 53.5459 8C48.3066 8 44.602 11.265 44.602 16.5128C44.602 21.7599 48.3567 24.9931 53.5459 24.9931C53.5793 24.9931 53.6126 25.0086 53.646 24.9931V19.859H53.596C51.8278 19.859 50.8429 18.7215 50.8429 16.5128C50.8429 14.2871 51.8278 13.1334 53.596 13.1334C53.6126 13.1334 53.6293 13.1496 53.646 13.1496ZM19.5733 18.8189V22.3438H21.8426L22.293 24.4402H28.0494L22.5599 8.51902H19.5733V15.018L20.775 18.8189H19.5733ZM19.5733 15.018V8.51902H16.203L10.8136 24.4402H16.7368L17.304 22.3438H19.5733V18.8189H18.3382L19.5066 14.7412L19.5733 15.018ZM43.6846 22.5712V15.1804H35.8256V18.5916H38.0282V20.395C34.7247 20.7353 33.0725 19.9565 33.1226 16.4634C33.1559 13.9779 34.4738 12.7917 35.7923 12.6137C36.577 12.5162 37.4944 12.9385 38.1784 13.7992L43.2842 11.6548C42.3334 9.72218 39.3961 8.09744 36.8765 8.06496C30.1353 7.95128 27.0485 11.4606 27.0485 16.7402C27.0485 21.6624 30.1686 24.5383 36.4095 24.9444C39.4969 25.1061 41.532 24.2778 43.6846 22.5712ZM0 24.4402H5.99063V18.8839H11.264V14.7906H5.99063V12.4668H11.8478V8.51902H0V24.4402Z" fill="black"/>
<path fill-rule="evenodd" clip-rule="evenodd" d="M109.94 0C121.56 0 131 9.45139 131 21.0249C131 32.5493 121.56 42 109.94 42C99.8072 42 91.3123 34.7725 89.3363 25.2538H103.809L110.126 18.8522H89C89.1512 17.4536 89.4052 16.1231 89.8104 14.8423H114.129L120.445 8.424H93.1026C96.9533 3.31865 103.066 0 109.94 0Z" fill="#FD466E"/>
</svg>
