<svg width="105" height="57" viewBox="0 0 105 57" fill="none" xmlns="http://www.w3.org/2000/svg">
<g clip-path="url(#clip0_5717_1796)">
<path d="M104.839 42.0715C104.838 42.4306 104.697 42.7748 104.446 43.0287C104.195 43.2825 103.856 43.4253 103.501 43.4257C103.325 43.4261 103.151 43.3912 102.989 43.3228C102.827 43.2544 102.68 43.154 102.556 43.0275C102.432 42.9023 102.333 42.7533 102.265 42.5891C102.198 42.4248 102.164 42.2486 102.164 42.0708C102.164 41.7084 102.303 41.3688 102.556 41.1138C102.808 40.8573 103.143 40.7173 103.501 40.7173C103.859 40.7173 104.193 40.8573 104.446 41.1138C104.57 41.2393 104.669 41.3886 104.737 41.5529C104.804 41.7173 104.839 41.8935 104.839 42.0715ZM103.501 40.5557C103.104 40.556 102.724 40.7157 102.444 40.9998C102.163 41.2839 102.006 41.6691 102.005 42.0708C102.005 42.4773 102.161 42.8578 102.444 43.1418C102.582 43.2832 102.747 43.3954 102.929 43.4717C103.111 43.548 103.305 43.5869 103.502 43.5863C103.902 43.5863 104.277 43.4293 104.559 43.1418C104.7 43.0019 104.81 42.8352 104.886 42.6512C104.961 42.4673 104.999 42.2699 104.998 42.0708C104.999 41.8716 104.961 41.6743 104.885 41.4903C104.81 41.3063 104.699 41.1393 104.559 40.9991C104.421 40.8582 104.256 40.7465 104.074 40.6704C103.892 40.5943 103.698 40.5553 103.501 40.5557Z" fill="black"/>
<path d="M103.263 41.3373V41.8857C103.263 41.8857 103.826 41.9233 103.826 41.6147C103.826 41.2563 103.263 41.3337 103.263 41.3373ZM103.263 42.2322V43.1038H102.899V41.0281C103.348 41.0281 104.141 40.9091 104.141 41.605C104.141 42.0495 103.815 42.1652 103.815 42.1652L104.253 43.1042H103.891L103.472 42.2329L103.263 42.2322ZM79.1167 34.781V28.4018C79.1167 28.4018 79.0267 25.505 76.1579 25.505C74.3602 25.505 73.1981 27.1146 73.1981 28.4018C73.1981 30.4508 75.0516 31.2968 76.1579 31.2968C76.8201 31.2968 77.2643 31.181 78.2496 30.4786C78.2496 32.9957 78.2203 34.4656 78.2496 34.4587C77.5918 34.6345 77.3522 34.7744 76.1579 34.7744C72.511 34.7744 69.6469 31.8542 69.6469 28.4015C69.6469 24.0134 73.5335 22.0285 76.1579 22.0285C79.4449 22.0285 82.6683 24.5976 82.6683 28.4015C82.6683 30.7423 82.6744 30.6844 82.6744 31.3279V34.7846L79.1167 34.781ZM52.9368 28.9125V22.3493L56.5248 20.7698V29.6493C56.5248 36.6133 45.1051 36.6133 45.1051 29.7665V25.8266L48.692 24.2203V28.9465C48.6917 32.2252 52.9368 32.1905 52.9368 28.9125Z" fill="#EB1B23"/>
<path d="M69.0801 34.9253C69.0801 34.9253 67.2663 35.0385 66.0924 34.3991C63.9386 33.2283 64.1772 29.807 64.1772 29.807V23.136H61.8466V19.6222H64.1772V17.4574L67.7655 15.8201V19.7401H70.0968V23.1939H67.7655V30.0689C67.7655 30.0689 67.8259 31.7048 69.0808 31.7048L69.0801 34.9253ZM57.4808 22.3428H61.0677V34.7716H57.4808V22.3428ZM57.4808 21.3793L61.0677 21.355V18.8029L57.4808 20.3839V21.3793Z" fill="#EB1B23"/>
<path d="M90.1499 21.4952V25.183C87.5193 25.183 87.6372 26.7621 87.6372 28.2255V34.7808H84.0499V26.1187C84.0499 21.6127 87.699 21.4952 90.1499 21.4952ZM83.4142 9.33043C83.301 9.08267 82.836 9.04867 82.3207 9.2306L82.175 8.9087L82.3268 8.83708L82.2004 4.37164L78.9327 1.37069L78.7795 1.44231L78.6327 1.1204C79.1048 0.841538 79.3805 0.461762 79.2698 0.214727C79.1387 -0.0688386 78.5488 -0.0717321 77.9506 0.207132C77.3496 0.488527 76.9692 0.944982 77.0967 1.22782C77.2081 1.47522 77.6728 1.50958 78.1884 1.32765L78.337 1.64956L75.6054 2.92343L75.4597 2.60008C75.93 2.32302 76.2093 1.94289 76.0954 1.69585C75.9661 1.41156 75.3754 1.40831 74.7758 1.69007C74.1751 1.96857 73.7948 2.42466 73.9219 2.70931C74.0351 2.95671 74.5001 2.98926 75.0154 2.80733L75.1622 3.12887L72.5338 4.35718L72.3881 4.03527C72.8598 3.75496 73.1373 3.37518 73.023 3.12779C72.8945 2.84495 72.3034 2.84169 71.7038 3.12055C71.1035 3.40195 70.7239 3.85804 70.8503 4.14088C70.9635 4.38864 71.4285 4.42264 71.9438 4.24071L72.0909 4.56262L71.766 4.71308L70.7728 7.53355L34.046 24.4871C32.3068 22.9242 29.3502 22.5918 26.6207 23.8672C23.1709 25.4752 21.3963 29.026 22.6559 31.7958C23.9155 34.5671 27.7331 35.5089 31.1829 33.8994C33.6681 32.7387 35.2773 30.5704 35.5145 28.4129L37.3329 27.5575C37.4593 27.5072 38.5511 27.1148 39.7956 28.3771C40.5224 30.0264 41.1698 31.8045 40.7559 32.9214C40.6809 33.1246 40.4513 33.7413 39.235 34.2893C38.4214 34.656 37.7122 34.8184 36.8133 35.0239C35.4791 35.3277 33.8163 35.7078 31.2522 36.9036C29.0234 37.9427 27.7699 39.9465 26.4414 42.07C24.664 44.9103 22.6498 48.1283 17.6715 50.4496C16.3445 51.0681 15.1217 51.1528 13.9318 50.7079C10.2741 49.3403 7.45213 43.1337 6.52718 41.0956C4.638 36.9398 2.27385 31.0127 3.55521 27.4989C3.94804 26.4232 4.6805 25.6485 5.79437 25.1269C10.8455 22.7712 14.4439 22.9485 17.6155 23.1047C19.9389 23.2168 22.1324 23.3239 24.288 22.3195C26.8521 21.1245 27.9485 20.2199 28.8295 19.4943C29.4134 19.0129 29.8358 18.6657 30.6212 18.2993C31.6704 17.8092 32.6914 17.7542 33.6492 18.134C35.0998 18.7091 36.103 20.1034 36.558 21.2185L39.5107 19.9801C38.5971 17.7408 36.8419 15.9244 34.8148 15.1197C33.0407 14.4162 31.1293 14.4979 29.2845 15.3595C28.1324 15.8962 27.4617 16.4485 26.8142 16.982C26.0318 17.6258 25.1475 18.3546 22.9509 19.3793C21.5063 20.0531 19.8586 19.971 17.7723 19.8697C14.406 19.7045 10.2191 19.5005 4.45944 22.1867C2.56169 23.0732 1.24963 24.4824 0.558237 26.378C-1.11595 30.9672 1.31748 37.3774 3.62413 42.4508C5.47046 46.5123 8.43207 52.1037 12.8236 53.7439C14.8214 54.4919 16.9019 54.3726 19.01 53.3906C24.8419 50.6703 27.2253 46.8609 29.1405 43.8018C30.3001 41.9481 31.2179 40.4836 32.5893 39.8449C34.8473 38.7894 36.2644 38.4661 37.5147 38.1814C38.5004 37.955 39.4317 37.7434 40.5335 37.2472C42.1534 36.518 43.2362 35.4445 43.7483 34.0571C44.7246 31.4124 43.379 28.4878 42.1916 25.9082L41.953 25.3852L72.3884 11.0897L75.1604 12.1806L75.484 12.0286L75.6311 12.3505C75.159 12.6291 74.8833 13.0092 74.9958 13.2562C75.1247 13.5398 75.7154 13.5423 76.3139 13.2638C76.9139 12.9821 77.2953 12.526 77.1671 12.2431C77.0542 11.9957 76.5903 11.9617 76.0754 12.1437L75.9282 11.8218L78.5552 10.5967L78.7023 10.9186C78.2317 11.1957 77.9549 11.5758 78.067 11.8228C78.1963 12.1075 78.7866 12.1104 79.3852 11.8304C79.9855 11.5501 80.368 11.094 80.2383 10.8097C80.1258 10.5623 79.6619 10.5294 79.1455 10.7117L78.9998 10.3898L81.7304 9.11703L81.875 9.4393C81.4047 9.71635 81.1265 10.0961 81.2401 10.3435C81.3693 10.6267 81.9597 10.63 82.5593 10.3497C83.161 10.0712 83.5438 9.61363 83.4142 9.33043ZM80.7251 53.7964C80.7251 53.7964 78.9759 53.8991 77.8356 53.2701C75.8046 52.1496 75.9871 48.1135 75.9871 48.1135V41.0312H73.7333V37.4877H75.9871V35.9784H79.4594L79.4537 37.6056H81.7079V41.0909H79.4537V48.9403C79.4537 48.9403 79.5123 50.5777 80.7251 50.5777V53.7964Z" fill="#EB1B23"/>
<path d="M52.0625 53.545C49.0331 57.048 45.8011 57.0002 44.5887 57.0002C38.4287 57.0002 34.6639 51.7033 34.6639 46.947C34.6639 42.6527 37.5019 37.9883 43.038 37.0606C46.5207 36.475 49.9055 37.8209 52.2639 40.5042C51.5061 41.0678 49.7909 42.3963 49.7909 42.3963C47.921 40.6576 46.6086 40.0764 44.5887 40.0764C42.9734 40.0764 37.8062 41.4237 37.8062 46.947C37.8062 50.5781 40.65 53.843 44.5887 53.8177C47.5428 53.8014 48.832 52.2664 49.638 51.4993L52.0625 53.545ZM70.7279 46.5224V53.6734H74.1956V45.4706C74.1956 38.5045 63.1569 38.5045 63.1569 45.3531V53.6734H66.626V46.406C66.626 43.2451 70.7279 43.1873 70.7279 46.5224ZM101.122 40.4471V44.1349C98.5792 44.1349 98.6956 45.7126 98.6956 47.176V53.6796H95.2276V45.0684C95.2283 40.9654 98.7942 40.4471 101.122 40.4471ZM85.786 44.6377C85.786 44.6377 84.3868 45.9198 85.0532 47.6415L88.7504 43.8958C88.7504 43.8951 87.3852 43.1858 85.786 44.6377ZM86.7909 50.5325C86.7663 50.5488 87.6091 50.6949 87.8505 50.6949C89.6868 50.6949 90.5943 49.3776 90.5943 49.3776C90.5943 49.3776 93.6102 49.3863 94.0409 49.3791C94.0409 49.3791 93.2441 51.4823 91.8081 52.4201C86.2795 56.0302 82.7822 51.5572 82.0951 50.3864C81.0609 48.6155 80.4988 43.5128 84.4185 41.3083C90.315 37.9952 93.6016 43.7555 93.6016 43.7555L86.7909 50.5325Z" fill="#EB1B23"/>
<path d="M54.3067 44.6376C54.3067 44.6376 52.9054 45.9184 53.5721 47.6415L57.2701 43.8965C57.2701 43.8965 55.9052 43.1872 54.3067 44.6376ZM62.5609 49.3798C62.5609 49.3798 61.7638 51.4834 60.3278 52.4209C54.7992 56.0327 51.3019 51.5597 50.6148 50.3871C49.5791 48.6166 49.017 43.5135 52.9379 41.3093C58.8347 37.9955 62.1213 43.7547 62.1213 43.7547L55.3113 50.5325C55.2881 50.5487 56.1291 50.6949 56.3705 50.6949C58.2083 50.6949 59.1132 49.3776 59.1132 49.3776L62.5609 49.3798Z" fill="#EB1B23"/>
</g>
<defs>
<clipPath id="clip0_5717_1796">
<rect width="105" height="57" fill="white"/>
</clipPath>
</defs>
</svg>
