<svg width="188" height="54" viewBox="0 0 188 54" fill="none" xmlns="http://www.w3.org/2000/svg">
<g clip-path="url(#clip0_5717_1791)">
<path fill-rule="evenodd" clip-rule="evenodd" d="M90.3972 37.9559C86.2169 37.9559 84.4379 36.0472 84.4379 32.1362V21.7724H81.1462V16.5905H84.4379V10.2265L91.7324 9.31649V16.5905H96.7144V21.7724H91.7324V30.2275C91.7324 31.2272 92.2659 31.8641 93.2451 31.8641C94.2234 31.8641 95.2914 31.5919 97.0704 30.7727V36.5008C94.8447 37.5014 92.7984 37.9559 90.3972 37.9559ZM109.166 26.0453H105.521C105.521 21.7724 105.964 20.5903 107.3 20.5903C108.633 20.5903 109.166 21.6817 109.166 26.0453ZM116.372 35.9565L114.859 31.0477C112.457 32.2288 110.678 32.5926 109.165 32.5926C107.119 32.5926 105.786 32.0474 105.52 28.9556H116.104V26.41C116.104 19.8637 112.814 16.136 107.3 16.136C102.051 16.136 98.5812 19.8627 98.5812 26.41V27.5921C98.5812 34.1395 101.963 37.8652 107.923 37.8652C111.301 37.8652 113.258 37.4117 116.372 35.9565ZM129.892 37.5921V23.8635C129.892 22.4083 129.448 21.6817 128.292 21.6817C127.668 21.6817 127.135 21.8631 126.513 22.2278V37.5931H119.04V17.1357L126.513 16.2267V20.4089H126.69C128.915 17.4088 130.605 16.2267 132.918 16.2267C135.764 16.2267 137.366 18.0447 137.366 21.9548V37.5931H129.892V37.5921ZM151.24 27.046C151.24 31.4115 150.529 32.8647 149.373 32.8647C148.217 32.8647 147.504 31.4115 147.504 27.046C147.504 22.6814 148.216 21.2272 149.373 21.2272C150.53 21.2272 151.24 22.6814 151.24 27.046ZM158.714 36.9562V8.2251L151.241 9.22578V19.8627H151.063C149.728 17.5902 148.395 16.2257 145.993 16.2257C142.347 16.2257 140.211 19.8627 140.211 26.4091V27.6828C140.211 34.2282 142.168 37.8643 145.993 37.8643C148.128 37.8643 149.551 36.5008 151.063 34.2273H151.241V37.955L158.714 36.9562ZM172.235 27.6828C172.235 32.1362 171.789 33.3192 170.366 33.3192C169.033 33.3192 168.497 32.1362 168.497 27.6828V26.4091C168.497 21.9538 169.033 20.7717 170.366 20.7717C171.789 20.7717 172.235 21.9538 172.235 26.4091V27.6828ZM179.706 27.6828V26.4091C179.706 19.8627 176.237 16.135 170.366 16.135C164.496 16.135 161.116 19.8617 161.116 26.4091V27.6828C161.116 34.2282 164.496 37.9559 170.366 37.9559C176.237 37.9559 179.706 34.2282 179.706 27.6828ZM40.2284 37.6838C45.8326 37.6838 50.3688 32.8647 50.3688 27.046C50.3688 21.1365 45.8326 16.4081 40.2284 16.4081C34.6241 16.4081 30.0879 21.1365 30.0879 27.046C30.0879 32.8647 34.6241 37.6838 40.2284 37.6838Z" fill="#1879BF"/>
<path fill-rule="evenodd" clip-rule="evenodd" d="M8.00452 27.0458C8.00452 14.2612 17.9063 3.84375 30.0879 3.84375C42.2704 3.84375 52.1712 14.2613 52.1712 27.0458C52.1712 39.8318 42.268 50.1571 30.0879 50.1571C17.9077 50.1571 8.00452 39.8318 8.00452 27.0458ZM30.0879 4.42309C18.253 4.42309 8.58386 14.5538 8.58386 27.0458C8.58386 39.5363 18.2516 49.5777 30.0879 49.5777C41.9242 49.5777 51.5919 39.5363 51.5919 27.0458C51.5919 14.5538 41.9237 4.42309 30.0879 4.42309Z" fill="#C4D64E"/>
<path fill-rule="evenodd" clip-rule="evenodd" d="M63.5338 37.6837C69.138 37.6837 73.6742 32.8646 73.6742 27.0458C73.6742 21.1363 69.138 16.408 63.5338 16.408C57.9295 16.408 53.4821 21.1363 53.4821 27.0458C53.4821 32.8646 57.9295 37.6837 63.5338 37.6837Z" fill="#C4D64E"/>
<path d="M51 27C51 39.1926 41.5566 49 30 49C18.4434 49 9 39.1926 9 27C9 14.8074 18.4434 5 30 5C41.5566 5 51 14.8074 51 27Z" stroke="#C4D64E" stroke-width="2"/>
</g>
<defs>
<clipPath id="clip0_5717_1791">
<rect width="188" height="54" fill="white"/>
</clipPath>
</defs>
</svg>
