<svg width="48" height="48" viewBox="0 0 48 48" fill="none" xmlns="http://www.w3.org/2000/svg">
<path d="M28 31H20V28L6 25V37.5266C6 39.448 7.59158 41 9.56211 41H38.4379C40.4084 41 42 39.448 42 37.5266V25L28 28V31Z" fill="#FD466E"/>
<path d="M38.4379 13.9999H32V12.0208C32 8.97284 29.9179 7 27 7H21C18.0821 7 16 8.97292 16 12.0208V14H9.5718C7.60128 14 6.0097 15.6625 6.0097 17.7208L6 23L20 26V23H28V26L42 23V17.6812C42 15.6624 40.4084 13.9999 38.4379 13.9999ZM19 12.5C19 11.5 19.5 11 20.5 11H27.5C28.5 11 29 11.5 29 12.5V14H19V12.5Z" fill="#FD466E"/>
<path d="M27 24H21V30H27V24Z" fill="#FD466E"/>
</svg>
