<svg width="48" height="48" viewBox="0 0 48 48" fill="none" xmlns="http://www.w3.org/2000/svg">
<path d="M44.7236 33.9657C44.3269 33.425 43.9303 32.8844 43.4543 32.4209C42.3436 31.3396 40.9157 30.799 39.329 30.6445C38.7737 30.5673 38.2977 30.49 38.0597 29.8721C37.2664 27.7095 35.8384 26.1648 33.7758 25.1607C33.5378 25.0834 33.2998 24.929 33.1411 24.6973C33.0618 24.5428 32.9825 24.2338 33.0618 24.0794C33.1411 23.9249 33.4585 23.7704 33.6171 23.8477C33.8551 23.9249 34.0931 24.0794 34.3311 24.3111C34.8071 24.6973 35.2038 25.2379 35.6798 25.6241C36.7111 26.3192 37.5044 25.933 37.8217 24.7745C38.139 23.7704 38.1391 22.8436 37.9011 21.8395C37.6631 20.6809 36.6317 20.1403 35.6004 20.7582C35.1244 20.9899 34.8071 21.4533 34.4104 21.7623C34.1724 21.994 34.0138 22.2257 33.7758 22.3802C33.2205 22.7663 32.6651 22.6891 32.2685 22.1484C32.0305 21.8395 31.9512 21.5305 31.7925 21.2216C31.4752 20.6037 31.2372 20.6037 30.8405 21.1444C30.7612 21.2216 30.7612 21.2988 30.7612 21.3761C30.6818 21.3761 30.6818 21.2988 30.6025 21.2988C30.6025 21.2216 30.6025 21.0671 30.6025 20.9899C30.6025 20.1403 30.2058 19.6769 29.3332 19.5224C29.0159 19.4452 28.6192 19.4452 28.3019 19.4452C26.4772 19.4452 24.8113 18.8273 23.542 17.5915C23.066 17.2053 22.6693 16.7419 22.2727 16.2784C22.114 16.124 22.114 15.9695 22.2727 15.7378C22.4313 15.5061 22.6693 15.1971 22.7486 14.8882C22.9073 14.0386 22.114 12.4938 21.2413 12.1849C20.6067 11.9532 20.0514 11.9532 19.4167 12.1077C17.7507 12.4938 16.7987 13.6524 16.2434 15.1199C15.0534 18.2094 14.7361 21.4533 15.2121 24.7745C15.4501 26.7054 16.4021 27.7867 18.2267 28.0957C20.1307 28.4819 22.114 28.7136 24.0973 28.9453C24.9699 29.0225 25.5253 29.4087 25.8426 30.2583C26.4772 31.803 27.1119 33.425 27.7466 34.9697C27.9052 35.2787 28.0639 35.6649 28.3019 35.9738C28.9365 36.9779 29.8092 37.2096 30.9198 36.8234C32.0305 36.4373 32.5858 35.5876 32.2685 34.4291C32.0305 33.5795 31.7132 32.8071 31.3958 31.9575C30.9198 30.799 30.3645 29.6404 30.0472 28.4046C29.3332 26.0875 28.0639 24.929 25.6046 24.62C24.6526 24.4655 23.78 24.4655 22.828 24.2338C21.876 24.0794 21.5587 23.6932 21.638 22.6891C21.7173 21.994 21.7967 21.3761 21.9553 20.6809C22.0347 20.2175 22.1933 20.1403 22.6693 20.372C24.1766 21.2988 25.8426 21.9167 27.5879 22.1484C28.4605 22.2257 29.3332 22.3802 30.1265 22.1484C30.2058 22.3029 30.2058 22.3802 30.2852 22.5346C30.6818 23.3842 31.0785 24.1566 31.3958 25.0062C32.4271 27.7867 33.3791 30.5673 34.3311 33.425C34.4898 33.9657 34.7278 34.0429 35.2038 33.734C35.5211 33.5795 35.7591 33.3478 36.0764 33.1933C38.5357 31.803 40.9157 31.9575 43.2163 33.6567C43.7716 34.1201 44.3269 34.5836 44.8823 35.1242C45.1203 34.738 44.9616 34.2746 44.7236 33.9657Z" fill="#2B6BF3"/>
<path d="M31.7663 37.7376C31.6881 37.7376 31.6098 37.7376 31.5316 37.7376C30.0448 37.7376 28.558 37.7376 27.0713 37.7376C25.5063 37.7376 23.9412 37.7376 22.298 37.7376C21.5937 37.7376 21.2025 37.5035 21.046 36.8014C20.8895 36.1773 20.6547 35.6312 20.4982 35.0071C20.107 33.8369 20.0287 32.6667 20.4982 31.4184C20.5765 31.2624 20.5765 31.1064 20.6547 30.8723C20.8895 29.7021 20.42 29.078 19.1679 29C18.8549 29 18.5419 29 18.2289 29C15.8814 29 13.6121 29 11.2646 29C9.46485 29 7.58683 29.078 5.78706 29.156C4.22205 29.234 3.67429 29.8582 4.22205 31.2624C4.69155 32.4326 4.6133 33.4468 4.22205 34.617C3.75254 36.0993 3.43954 37.5816 3.04828 39.0638C2.89178 39.6099 3.12654 39.844 3.59604 39.922C4.06554 40 4.53505 40 4.9263 40C5.55231 40 5.86531 39.766 6.02181 39.1418C6.10006 38.7518 6.10006 38.3617 6.10006 37.9716C6.49132 34.9291 8.83884 32.6667 11.9689 32.5106C14.9424 32.2766 17.5247 34.227 18.3072 37.1915C18.4637 37.8156 18.5419 38.5177 18.6202 39.2199C18.6984 39.6879 18.9332 39.922 19.4027 40C19.8722 40 20.2635 40 20.733 40C24.489 40 28.245 40 32.0011 40C32.3141 40 32.6271 39.922 32.7836 39.6099C33.3313 38.6738 32.7836 37.8156 31.7663 37.7376Z" fill="#2B6BF3"/>
<path d="M39.0741 35C36.7037 35 35 36.7196 35 38.9626C35 41.2056 36.7778 43 39 43C41.2963 43 43 41.2804 43 38.9626C43 36.7196 41.2963 35 39.0741 35Z" fill="#2B6BF3"/>
<path d="M12.5425 34.0025C10.0661 33.9192 8.00249 35.9181 8.00249 38.4167C7.91994 40.9985 9.90105 42.9974 12.46 42.9974C14.9364 43.0807 16.9175 41.1651 17 38.5832C17 36.0014 15.1014 34.0025 12.5425 34.0025Z" fill="#2B6BF3"/>
<path d="M23.0266 11.9352C24.5808 12.2523 26.2986 11.3802 26.953 9.87379C27.1984 9.3188 27.2802 8.76381 27.362 8.12953C27.9346 8.2881 28.589 8.44667 29.2434 8.60524C29.6524 8.68452 29.8977 8.60524 29.9795 8.2881C30.0613 7.97096 29.8978 7.73311 29.4888 7.65382C28.7526 7.49525 28.0164 7.2574 27.2802 7.09883C27.1166 7.01955 26.8712 6.86098 26.7894 6.70241C25.9714 5.35457 24.2536 4.72029 22.6994 5.11671C21.1452 5.51314 20 6.94026 20 8.52595C20 10.1909 21.227 11.5388 23.0266 11.9352Z" fill="#2B6BF3"/>
</svg>
