<svg width="102" height="76" viewBox="0 0 102 76" fill="none" xmlns="http://www.w3.org/2000/svg">
<path d="M89.002 6C85.1397 6 82 9.13672 82 12.9961C82 16.8555 85.1397 20 89.002 20C92.8603 20 96 16.8555 96 12.9961C96 9.13672 92.8642 6 89.002 6ZM89.002 16.4453C87.0962 16.4453 85.5498 14.8984 85.5498 12.9961C85.5498 11.0938 87.0962 9.54688 89.002 9.54688C90.8999 9.54688 92.4502 11.0938 92.4502 12.9961C92.4502 14.8984 90.9038 16.4453 89.002 16.4453Z" fill="#C2D2F4"/>
<path d="M89.002 6C85.1397 6 82 9.13672 82 12.9961C82 16.8555 85.1397 20 89.002 20C92.8603 20 96 16.8555 96 12.9961C96 9.13672 92.8642 6 89.002 6ZM89.002 16.4453C87.0962 16.4453 85.5498 14.8984 85.5498 12.9961C85.5498 11.0938 87.0962 9.54688 89.002 9.54688C90.8999 9.54688 92.4502 11.0938 92.4502 12.9961C92.4502 14.8984 90.9038 16.4453 89.002 16.4453Z" fill="#B7C6E7"/>
<path d="M88.5019 0C81.0578 0 75 6.09534 75 13.5943C75 17.5588 76.2582 20.3386 79.6482 23.8496C81.05 25.3002 82.8946 29.6439 84.2382 32.8147C86.2574 37.5651 86.8632 39 88.5019 39C90.1407 39 90.7464 37.5651 92.7657 32.8147C94.1093 29.6439 95.95 25.3002 97.3557 23.8496C100.742 20.3386 102 17.5588 102 13.5943C102 6.09534 95.9461 0 88.5019 0ZM94.8199 21.3669C92.9599 23.2905 91.127 27.6069 89.5155 31.415C89.1893 32.1774 88.832 33.018 88.5019 33.7687C88.168 33.022 87.8107 32.1814 87.4884 31.4229C85.873 27.6108 84.0401 23.2905 82.1839 21.3669C79.454 18.5402 78.5376 16.5774 78.5376 13.5943C78.5376 8.05805 83.0033 3.5618 88.5019 3.5618C93.9928 3.5618 98.4663 8.05805 98.4663 13.5943C98.4702 16.5774 97.5537 18.5402 94.8199 21.3669Z" fill="#C2D2F4"/>
<path d="M88.5019 0C81.0578 0 75 6.09534 75 13.5943C75 17.5588 76.2582 20.3386 79.6482 23.8496C81.05 25.3002 82.8946 29.6439 84.2382 32.8147C86.2574 37.5651 86.8632 39 88.5019 39C90.1407 39 90.7464 37.5651 92.7657 32.8147C94.1093 29.6439 95.95 25.3002 97.3557 23.8496C100.742 20.3386 102 17.5588 102 13.5943C102 6.09534 95.9461 0 88.5019 0ZM94.8199 21.3669C92.9599 23.2905 91.127 27.6069 89.5155 31.415C89.1893 32.1774 88.832 33.018 88.5019 33.7687C88.168 33.022 87.8107 32.1814 87.4884 31.4229C85.873 27.6108 84.0401 23.2905 82.1839 21.3669C79.454 18.5402 78.5376 16.5774 78.5376 13.5943C78.5376 8.05805 83.0033 3.5618 88.5019 3.5618C93.9928 3.5618 98.4663 8.05805 98.4663 13.5943C98.4702 16.5774 97.5537 18.5402 94.8199 21.3669Z" fill="#B7C6E7"/>
<path d="M9 69.5531C10.7194 70.9341 12.5535 72.0989 14.4563 73L16 70.0183C14.3417 69.2308 12.7445 68.2161 11.2391 67L9 69.5531Z" fill="#C2D2F4"/>
<path d="M9 69.5531C10.7194 70.9341 12.5535 72.0989 14.4563 73L16 70.0183C14.3417 69.2308 12.7445 68.2161 11.2391 67L9 69.5531Z" fill="#B7C6E7"/>
<path d="M0 59.4951C0.0595745 59.5909 1.34468 62.0329 3.97021 65L7 62.8226C4.67234 60.2004 3.51489 58.023 3.50213 58L0 59.4951Z" fill="#C2D2F4"/>
<path d="M0 59.4951C0.0595745 59.5909 1.34468 62.0329 3.97021 65L7 62.8226C4.67234 60.2004 3.51489 58.023 3.50213 58L0 59.4951Z" fill="#B7C6E7"/>
<path d="M68 38.31L68.5741 42C70.3948 41.7206 72.4329 41.663 74.6965 41.848L75 38.125C72.4247 37.9073 70.116 37.9771 68 38.31Z" fill="#C2D2F4"/>
<path d="M68 38.31L68.5741 42C70.3948 41.7206 72.4329 41.663 74.6965 41.848L75 38.125C72.4247 37.9073 70.116 37.9771 68 38.31Z" fill="#B7C6E7"/>
<path d="M57 45.6896L59.778 48C61.0376 46.3787 62.4226 45.1343 64 44.2061L62.2343 41C60.2606 42.1673 58.5499 43.7035 57 45.6896Z" fill="#C2D2F4"/>
<path d="M57 45.6896L59.778 48C61.0376 46.3787 62.4226 45.1343 64 44.2061L62.2343 41C60.2606 42.1673 58.5499 43.7035 57 45.6896Z" fill="#B7C6E7"/>
<path d="M50 56.1126L52.8504 58C53.8641 56.4158 54.8703 54.7217 56 52.6789L53.0337 51C51.9377 52.967 50.9763 54.5929 50 56.1126Z" fill="#C2D2F4"/>
<path d="M50 56.1126L52.8504 58C53.8641 56.4158 54.8703 54.7217 56 52.6789L53.0337 51C51.9377 52.967 50.9763 54.5929 50 56.1126Z" fill="#B7C6E7"/>
<path d="M81 43.392C82.8528 43.8017 84.8349 44.3492 86.8993 45L88 41.6884C85.8338 40.9992 83.742 40.4326 81.7913 40L81 43.392Z" fill="#C2D2F4"/>
<path d="M81 43.392C82.8528 43.8017 84.8349 44.3492 86.8993 45L88 41.6884C85.8338 40.9992 83.742 40.4326 81.7913 40L81 43.392Z" fill="#B7C6E7"/>
<path d="M25.9708 72.3738C24.4586 72.4374 23.0128 72.3022 21.5986 72L21 75.5507C22.3792 75.8529 23.804 76 25.2392 76C25.5158 76 25.7993 75.992 26.0863 75.9841C26.3944 75.9682 26.6989 75.9523 27 75.9284L26.7795 72.326C26.5064 72.3419 26.2369 72.3579 25.9708 72.3738Z" fill="#C2D2F4"/>
<path d="M25.9708 72.3738C24.4586 72.4374 23.0128 72.3022 21.5986 72L21 75.5507C22.3792 75.8529 23.804 76 25.2392 76C25.5158 76 25.7993 75.992 26.0863 75.9841C26.3944 75.9682 26.6989 75.9523 27 75.9284L26.7795 72.326C26.5064 72.3419 26.2369 72.3579 25.9708 72.3738Z" fill="#B7C6E7"/>
<path d="M33 71.5121L34.0678 75C36.1001 74.3145 38.0979 73.3468 40 72.1411L38.2012 69C36.5287 70.0605 34.7797 70.9113 33 71.5121Z" fill="#C2D2F4"/>
<path d="M33 71.5121L34.0678 75C36.1001 74.3145 38.0979 73.3468 40 72.1411L38.2012 69C36.5287 70.0605 34.7797 70.9113 33 71.5121Z" fill="#B7C6E7"/>
<path d="M43 65.3657L45.0865 68C46.4286 66.6047 47.7433 65.0061 49 63.2434L46.5959 61C45.4382 62.6181 44.2294 64.0877 43 65.3657Z" fill="#C2D2F4"/>
<path d="M43 65.3657L45.0865 68C46.4286 66.6047 47.7433 65.0061 49 63.2434L46.5959 61C45.4382 62.6181 44.2294 64.0877 43 65.3657Z" fill="#B7C6E7"/>
</svg>
