<svg width="48" height="48" viewBox="0 0 48 48" fill="none" xmlns="http://www.w3.org/2000/svg">
<path d="M24 5C14.6879 5 7.11111 12.5768 7.11111 21.8889H5V32.4444H7.11111H9.22222H11.3333V21.8889C11.3333 14.9032 17.0143 9.22222 24 9.22222C30.9857 9.22222 36.6667 14.9032 36.6667 21.8889V31.315L25.4714 38.7778H21.8889V43H26.7508L40.8889 33.5739V32.4444H43V21.8889H40.8889C40.8889 12.5768 33.3121 5 24 5Z" fill="#FFDD2D"/>
<path d="M35 24C35 17.9346 30.0654 13 24 13C17.9346 13 13 17.9346 13 24C13 30.0654 17.9346 35 24 35C30.0654 35 35 30.0654 35 24Z" fill="#FFDD2D"/>
</svg>
