<svg width="56" height="56" viewBox="0 0 56 56" fill="none" xmlns="http://www.w3.org/2000/svg">
<path d="M6 36V30.5616L8.09325 30.0382C8.61046 29.9089 9.0966 29.6775 9.52311 29.3577L16.6667 24L31.3591 24L37.5132 28.3958C37.9414 28.7017 38.4259 28.9201 38.9387 29.0384L50 31.591V36H47V38H50C51.1046 38 52 37.1046 52 36V31.591C52 30.6597 51.3572 29.8517 50.4497 29.6422L39.3884 27.0896C39.132 27.0305 38.8898 26.9213 38.6756 26.7683L32.5215 22.3725C32.1823 22.1302 31.7759 22 31.3591 22H16.6667C16.2339 22 15.8129 22.1404 15.4667 22.4L8.32311 27.7577C8.10985 27.9176 7.86678 28.0333 7.60818 28.098L5.51493 28.6213C4.62459 28.8439 4 29.6438 4 30.5616V36C4 37.1046 4.89543 38 6 38H10V36H6Z" fill="#2B6BF3"/>
<path d="M21 36V38H40V36H21Z" fill="#2B6BF3"/>
<path fill-rule="evenodd" clip-rule="evenodd" d="M13.5 39C14.8807 39 16 37.8807 16 36.5C16 35.1193 14.8807 34 13.5 34C12.1193 34 11 35.1193 11 36.5C11 37.8807 12.1193 39 13.5 39ZM13.5 41C15.9853 41 18 38.9853 18 36.5C18 34.0147 15.9853 32 13.5 32C11.0147 32 9 34.0147 9 36.5C9 38.9853 11.0147 41 13.5 41Z" fill="#2B6BF3"/>
<path fill-rule="evenodd" clip-rule="evenodd" d="M43.5 39C44.8807 39 46 37.8807 46 36.5C46 35.1193 44.8807 34 43.5 34C42.1193 34 41 35.1193 41 36.5C41 37.8807 42.1193 39 43.5 39ZM43.5 41C45.9853 41 48 38.9853 48 36.5C48 34.0147 45.9853 32 43.5 32C41.0147 32 39 34.0147 39 36.5C39 38.9853 41.0147 41 43.5 41Z" fill="#2B6BF3"/>
<path d="M19 14.3962V12.0409C19.0007 12.0399 19.0014 12.039 19.0021 12.038L19.001 13.0005C19.0005 13.4658 19.0002 13.931 19 14.3962ZM20.0029 12.0016L19.1469 12L19.342 12L20.2483 12L20.8164 12.0001C20.7651 12.0003 20.7139 12.0004 20.6629 12.0006C20.4392 12.0013 20.2183 12.002 20.0029 12.0016ZM22.0112 12.0049C21.8581 12.0024 21.7041 12.001 21.5499 12.0002L22.9987 12.0004C23.549 12.0005 24.0992 12.0006 24.6079 12.0008C24.5467 12.0009 24.4856 12.0009 24.4246 12.001C24.2825 12.0013 24.1409 12.0015 23.9996 12.0016L23.0037 12.0025L23.0006 12.9985C23 13.1773 22.9997 13.3525 22.9996 13.5254C22.9988 13.3479 22.9974 13.1698 22.9951 12.9916L22.9823 12.0204L22.0112 12.0049ZM26.0038 12.0029C25.8897 12.0021 25.7755 12.0016 25.6613 12.0012C25.6912 12.0012 25.7207 12.0012 25.7499 12.0012C26.1252 12.0014 26.4378 12.0017 26.6567 12.002L26.7388 12.0021L26.7429 12.0044L26.9605 12.0032C26.9629 12.005 26.9655 12.007 26.9681 12.0092L26.0038 12.0029ZM26.9969 12.0396C26.9973 12.0402 26.9978 12.0408 26.9983 12.0415V14.2592C26.9983 14.2552 26.9983 14.2512 26.9983 14.2472C26.9978 13.8318 26.9974 13.4169 26.9972 13.0025L26.9969 12.0396ZM26.9947 17.9992C26.9964 17.6512 26.9976 17.3031 26.9983 16.955V18.9578C26.9958 18.9612 26.9931 18.9648 26.99 18.9685L26.9947 17.9992ZM26.9686 18.99C26.966 18.9923 26.9634 18.9943 26.961 18.9961L25.2139 18.997C25.4757 18.9963 25.7374 18.9954 25.9991 18.9943L26.9686 18.99ZM21.8808 18.9982C22.0037 18.9983 22.1266 18.9984 22.2495 18.9985L19.0411 19.0001C19.041 19 19.041 19 19.0409 18.9999C19.0399 18.9992 19.0389 18.9985 19.0379 18.9977L20.0013 18.9974C20.6269 18.9972 21.2536 18.9977 21.8808 18.9982ZM19.0018 18.9616C19.0012 18.9608 19.0006 18.96 19 18.9592V16.1772C19.0002 16.7842 19.0006 17.3912 19.001 17.9982L19.0018 18.9616ZM22.9993 14.5035C22.9995 14.4486 22.9996 14.3936 22.9997 14.3385C22.9998 14.3762 22.9998 14.4139 22.9998 14.4516C23 14.6344 23.0002 14.8169 23.0002 15.0006C22.9995 15.0006 22.9989 15.0006 22.9982 15.0006C22.9984 14.8504 22.9988 14.6997 22.9992 14.5481L22.9993 14.5035ZM18.9984 12H18.9983V11.9965V11L18.9984 11.9965L18.9984 12Z" stroke="#FFDD2D" stroke-width="2"/>
</svg>
