<svg width="100" height="56" viewBox="0 0 100 56" fill="none" xmlns="http://www.w3.org/2000/svg">
<path d="M68 17C66.3437 17 65 18.3428 65 19.9999C65 21.6562 66.3437 22.9999 68 22.9999C69.6563 22.9999 71 21.6562 71 19.9999C71 18.3428 69.6563 17 68 17ZM68 20.9998C67.4471 20.9998 67.0001 20.5516 67.0001 19.9999C67.0001 19.447 67.4471 19.0001 68 19.0001C68.5529 19.0001 68.9999 19.4473 68.9999 19.9999C68.9999 20.5516 68.5529 20.9998 68 20.9998Z" fill="#2B6BF3"/>
<path d="M67.7342 35.6835L62.4139 41L61 39.5858L66.3203 34.2679L67.7342 35.6835Z" fill="#2B6BF3"/>
<path d="M62.9998 32.0002H65V29.8289L67.0001 27.8279V32.8282L71 36.8283V41H73.0002V36.9999C73.0002 36.4503 72.6816 35.6814 72.2931 35.2932L68.9999 31.9981V24.9999H67.0001L63.7069 28.2926C63.3181 28.6811 62.9998 29.45 62.9998 29.9996V32.0002Z" fill="#2B6BF3"/>
<path d="M72 31H77L78 29H72.5L70 26V28.5L72 31Z" fill="#2B6BF3"/>
<path fill-rule="evenodd" clip-rule="evenodd" d="M76.3248 21.0001C76.2771 21.0003 76.2294 21.0004 76.1817 21.0006C75.9906 21.0012 75.7994 21.0018 75.6082 21.0017C75.5731 21.0017 75.5379 21.0017 75.5028 21.0016C75.5028 21.0114 75.5028 21.0212 75.5028 21.031C75.5025 21.2967 75.5022 21.5624 75.5021 21.8282C75.502 21.9376 75.5019 22.047 75.5019 22.1565C75.5018 22.2365 75.5018 22.3165 75.5018 22.3965C75.5017 22.5982 75.5017 22.7999 75.5016 23.0016C75.5016 23.2567 75.5016 23.5118 75.5017 23.7668C75.5017 23.9035 75.5017 24.0402 75.5018 24.1769C75.502 24.7837 75.5023 25.3905 75.5028 25.9974C76.1307 25.9972 76.7586 25.9977 77.3865 25.9982C77.471 25.9983 77.5555 25.9983 77.64 25.9984C77.6776 25.9984 77.7152 25.9984 77.7529 25.9985C78.2194 25.9988 81.5 26 81.5 26C81.5 26 81.5 22.2505 81.5 22.2607C81.5 22.2505 81.5 22.2539 81.5 22.2505C81.4996 21.8363 81.4992 21.4221 81.499 21.0079L81.499 21.0029C81.3865 21.0021 81.274 21.0016 81.1615 21.0012C80.8113 21 80.4612 21.0003 80.111 21.0008C80.0507 21.0008 79.9904 21.0009 79.9301 21.001C79.7875 21.0013 79.6449 21.0015 79.5024 21.0016L79.5023 21.0036C79.5018 21.1788 79.5015 21.3539 79.5014 21.5291C79.5012 21.6857 79.5012 21.8422 79.5013 21.9987C79.5014 22.1109 79.5014 22.2231 79.5015 22.3354C79.5015 22.3718 79.5016 22.4082 79.5016 22.4447C79.5017 22.5095 79.5017 22.5743 79.5018 22.639C79.502 22.9946 79.5021 23.3502 79.5013 23.7057C79.5013 23.739 79.5012 23.7723 79.5011 23.8056C79.5009 23.8618 79.5008 23.9181 79.5006 23.9743C79.5005 23.9825 79.5005 23.9906 79.5005 23.9987C79.3791 23.9986 79.2577 23.9987 79.1362 23.999C79.0358 23.9992 78.9354 23.9995 78.8349 23.9998C78.4395 24.0009 78.044 24.002 77.6485 23.9984C77.6003 23.9979 77.5521 23.9974 77.5038 23.9968L77.5038 23.9912C77.5029 23.9141 77.5022 23.837 77.5017 23.7599C77.5016 23.7439 77.5014 23.728 77.5013 23.7121C77.4989 23.3241 77.4999 22.9361 77.501 22.548C77.5012 22.4793 77.5013 22.4105 77.5015 22.3417C77.5016 22.2812 77.5018 22.2206 77.5019 22.1601C77.5021 22.0493 77.5022 21.9385 77.5021 21.8277C77.502 21.7258 77.5018 21.624 77.5013 21.5222C77.5006 21.3497 77.4992 21.1772 77.497 21.0047C77.4759 21.0044 77.4549 21.0041 77.4339 21.0038C77.3073 21.002 77.1807 21.0009 77.0541 21.0002C76.811 20.9989 76.5679 20.9994 76.3248 21.0001ZM77.0403 19.0002C78.0223 19.0003 79.1404 19.0005 80.1084 19.0008C80.4896 19.0009 80.8476 19.001 81.1647 19.0012C81.9638 19.0016 82.5051 19.0029 82.5051 19.0029C82.5413 19.0027 82.5775 19.0052 82.6136 19.0101C83.0552 19.071 83.4713 19.5058 83.4986 19.9497C83.4996 19.965 83.5 19.9804 83.5 19.9957V27.0001C83.5001 27.0397 83.497 27.0794 83.491 27.1189C83.427 27.5391 83.031 27.9337 82.6112 27.9894C82.5759 27.9941 82.5405 27.9964 82.5051 27.9961L74.5 28.0001C74.4802 28.0001 74.4605 27.9993 74.4407 27.9978C73.9796 27.9619 73.5355 27.5164 73.5036 27.0552C73.5023 27.0369 73.5017 27.0185 73.5018 27.0001V20C73.5017 19.9798 73.5025 19.9595 73.504 19.9393C73.5405 19.4603 74.0203 19 74.5 19C74.5 19 74.5527 19 74.6495 19C74.9213 19 75.5413 19 76.3201 19.0001C76.5481 19.0001 76.7898 19.0001 77.0403 19.0002Z" fill="#FFDD2D"/>
<path d="M39.9992 28.9982C39.5447 29.0002 39.0919 29.0539 38.6496 29.1582L36.5003 23.9993H38.9995V24.9991H40.9988V22.9996C40.9988 22.7344 40.8935 22.4801 40.706 22.2926C40.5186 22.1051 40.2643 21.9998 39.9992 21.9998H35.0008C34.837 22.0006 34.676 22.0416 34.5318 22.1192C34.3877 22.1969 34.2648 22.3087 34.174 22.445C34.0831 22.5812 34.0272 22.7377 34.011 22.9006C33.9948 23.0636 34.0188 23.228 34.0811 23.3795L34.7508 24.9991H28.003L27.3832 22.9996H29.0027V21H23.0046V22.9996H25.2639L26.0736 25.619L24.0043 29.3481C22.8443 28.9364 21.5857 28.8916 20.3994 29.2197C19.213 29.5478 18.1563 30.2329 17.3727 31.1822C16.589 32.1315 16.1164 33.2989 16.0189 34.526C15.9213 35.7532 16.2037 36.9806 16.8275 38.0418C17.4514 39.1029 18.3866 39.9464 19.5062 40.4578C20.6259 40.9692 21.8757 41.1238 23.0862 40.9005C24.2966 40.6772 25.4091 40.0868 26.2726 39.2096C27.1361 38.3323 27.7088 37.2106 27.913 35.9967H30.0024C30.167 35.9958 30.3289 35.9543 30.4737 35.8758C30.6184 35.7973 30.7415 35.6843 30.8321 35.5468L35.9505 27.8685L36.8102 29.918C35.5862 30.6873 34.6813 31.8729 34.2618 33.2564C33.8424 34.64 33.9367 36.1285 34.5274 37.4481C35.1181 38.7676 36.1655 39.8294 37.4768 40.4381C38.7881 41.0467 40.275 41.1613 41.664 40.7606C43.053 40.36 44.2506 39.4712 45.0364 38.2577C45.8222 37.0441 46.1434 35.5876 45.9408 34.1561C45.7382 32.7246 45.0254 31.4145 43.9337 30.4668C42.842 29.5191 41.4448 28.9976 39.9992 28.9982ZM28.5828 26.9987H34.131L30.3323 32.6874L28.5828 26.9987ZM26.8834 28.2684L28.6528 33.9971H27.913C27.6658 32.5461 26.8937 31.2366 25.7437 30.3179L26.8834 28.2684ZM24.754 32.1075C25.2926 32.6218 25.6769 33.2762 25.8637 33.9971H23.7044L24.754 32.1075ZM22.0049 38.996C20.9444 38.996 19.9273 38.5747 19.1774 37.8247C18.4275 37.0747 18.0062 36.0575 18.0062 34.9969C18.0062 33.9363 18.4275 32.9191 19.1774 32.1691C19.9273 31.4191 20.9444 30.9978 22.0049 30.9978C22.3427 31.002 22.6786 31.049 23.0046 31.1377L21.1352 34.507C21.0498 34.659 21.0056 34.8307 21.007 35.0051C21.0084 35.1795 21.0554 35.3504 21.1433 35.501C21.2313 35.6516 21.357 35.7766 21.5082 35.8635C21.6593 35.9505 21.8306 35.9964 22.0049 35.9967H25.8637C25.6426 36.853 25.144 37.6118 24.4458 38.1545C23.7476 38.6972 22.8892 38.9931 22.0049 38.996ZM39.9992 38.996C39.1666 38.9899 38.3568 38.7241 37.6826 38.2356C37.0084 37.7471 36.5034 37.0604 36.2382 36.2711C35.9729 35.4819 35.9606 34.6296 36.2029 33.833C36.4452 33.0364 36.9301 32.3354 37.5899 31.8276L39.0695 35.3868L40.9189 34.617L39.4393 31.0578C39.6243 31.0246 39.8114 31.0046 39.9992 30.9978C41.0597 30.9978 42.0768 31.4191 42.8267 32.1691C43.5766 32.9191 43.9979 33.9363 43.9979 34.9969C43.9979 36.0575 43.5766 37.0747 42.8267 37.8247C42.0768 38.5747 41.0597 38.996 39.9992 38.996Z" fill="#2B6BF3"/>
<path d="M58.0613 9L59 9.25286L48.9387 47L48 46.7471L58.0613 9Z" fill="#C2D2F4"/>
<path d="M58.0613 9L59 9.25286L48.9387 47L48 46.7471L58.0613 9Z" fill="#B7C6E7"/>
</svg>
