<svg width="100" height="84" viewBox="0 0 100 84" fill="none" xmlns="http://www.w3.org/2000/svg">
<path d="M68 17C66.3437 17 65 18.3428 65 19.9999C65 21.6562 66.3437 22.9999 68 22.9999C69.6563 22.9999 71 21.6562 71 19.9999C71 18.3428 69.6563 17 68 17ZM68 20.9998C67.4471 20.9998 67.0001 20.5516 67.0001 19.9999C67.0001 19.447 67.4471 19.0001 68 19.0001C68.5529 19.0001 68.9999 19.4473 68.9999 19.9999C68.9999 20.5516 68.5529 20.9998 68 20.9998Z" fill="#2B6BF3"/>
<path d="M67.7342 35.6835L62.4139 41L61 39.5858L66.3203 34.2679L67.7342 35.6835Z" fill="#2B6BF3"/>
<path d="M62.9998 32.0002H65V29.8289L67.0001 27.8279V32.8282L71 36.8283V41H73.0002V36.9999C73.0002 36.4503 72.6816 35.6814 72.2931 35.2932L68.9999 31.9981V24.9999H67.0001L63.7069 28.2926C63.3181 28.6811 62.9998 29.45 62.9998 29.9996V32.0002Z" fill="#2B6BF3"/>
<path d="M72 31H77L78 29H72.5L70 26V28.5L72 31Z" fill="#2B6BF3"/>
<path d="M75 22.3962V20.0409C75.0007 20.0399 75.0014 20.039 75.0021 20.038L75.001 21.0005C75.0005 21.4658 75.0002 21.931 75 22.3962ZM76.0029 20.0016L75.1469 20L75.342 20L76.2483 20L76.8164 20.0001C76.7651 20.0003 76.7139 20.0004 76.6629 20.0006C76.4392 20.0013 76.2183 20.002 76.0029 20.0016ZM78.0112 20.0049C77.8581 20.0024 77.7041 20.001 77.5499 20.0002L78.9987 20.0004C79.549 20.0005 80.0992 20.0006 80.6079 20.0008C80.5467 20.0009 80.4856 20.0009 80.4246 20.001C80.2825 20.0013 80.1409 20.0015 79.9996 20.0016L79.0037 20.0025L79.0006 20.9985C79 21.1773 78.9997 21.3525 78.9996 21.5254C78.9988 21.3479 78.9974 21.1698 78.9951 20.9916L78.9823 20.0204L78.0112 20.0049ZM82.0038 20.0029C81.8897 20.0021 81.7755 20.0016 81.6613 20.0012C81.6912 20.0012 81.7207 20.0012 81.7499 20.0012C82.1252 20.0014 82.4378 20.0017 82.6567 20.002L82.7388 20.0021L82.7429 20.0044L82.9605 20.0032C82.9629 20.005 82.9655 20.007 82.9681 20.0092L82.0038 20.0029ZM82.9969 20.0396C82.9973 20.0402 82.9978 20.0408 82.9983 20.0415V22.2592C82.9983 22.2552 82.9983 22.2512 82.9983 22.2472C82.9978 21.8318 82.9974 21.4169 82.9972 21.0025L82.9969 20.0396ZM82.9947 25.9992C82.9964 25.6512 82.9976 25.3031 82.9983 24.955V26.9578C82.9958 26.9612 82.9931 26.9648 82.99 26.9685L82.9947 25.9992ZM82.9686 26.99C82.966 26.9923 82.9634 26.9943 82.961 26.9961L81.2139 26.997C81.4757 26.9963 81.7374 26.9954 81.9991 26.9943L82.9686 26.99ZM77.8808 26.9982C78.0037 26.9983 78.1266 26.9984 78.2495 26.9985L75.0411 27.0001C75.041 27 75.041 27 75.0409 26.9999C75.0399 26.9992 75.0389 26.9985 75.0379 26.9977L76.0013 26.9974C76.6269 26.9972 77.2536 26.9977 77.8808 26.9982ZM75.0018 26.9616C75.0012 26.9608 75.0006 26.96 75 26.9592V24.1772C75.0002 24.7842 75.0006 25.3912 75.001 25.9982L75.0018 26.9616ZM78.9993 22.5035C78.9995 22.4486 78.9996 22.3936 78.9997 22.3385C78.9998 22.3762 78.9998 22.4139 78.9998 22.4516C79 22.6344 79.0002 22.8169 79.0002 23.0006C78.9995 23.0006 78.9989 23.0006 78.9982 23.0006C78.9984 22.8504 78.9988 22.6997 78.9992 22.5481L78.9993 22.5035ZM74.9984 20H74.9983V19.9965V19L74.9984 19.9965L74.9984 20Z" stroke="#FFDD2D" stroke-width="2"/>
<path d="M39.9992 28.9982C39.5447 29.0002 39.0919 29.0539 38.6496 29.1582L36.5003 23.9993H38.9995V24.9991H40.9988V22.9996C40.9988 22.7344 40.8935 22.4801 40.706 22.2926C40.5186 22.1051 40.2643 21.9998 39.9992 21.9998H35.0008C34.837 22.0006 34.676 22.0416 34.5318 22.1192C34.3877 22.1969 34.2648 22.3087 34.174 22.445C34.0831 22.5812 34.0272 22.7377 34.011 22.9006C33.9948 23.0636 34.0188 23.228 34.0811 23.3795L34.7508 24.9991H28.003L27.3832 22.9996H29.0027V21H23.0046V22.9996H25.2639L26.0736 25.619L24.0043 29.3481C22.8443 28.9364 21.5857 28.8916 20.3994 29.2197C19.213 29.5478 18.1563 30.2329 17.3727 31.1822C16.589 32.1315 16.1164 33.2989 16.0189 34.526C15.9213 35.7532 16.2037 36.9806 16.8275 38.0418C17.4514 39.1029 18.3866 39.9464 19.5062 40.4578C20.6259 40.9692 21.8757 41.1238 23.0862 40.9005C24.2966 40.6772 25.4091 40.0868 26.2726 39.2096C27.1361 38.3323 27.7088 37.2106 27.913 35.9967H30.0024C30.167 35.9958 30.3289 35.9543 30.4737 35.8758C30.6184 35.7973 30.7415 35.6843 30.8321 35.5468L35.9505 27.8685L36.8102 29.918C35.5862 30.6873 34.6813 31.8729 34.2618 33.2564C33.8424 34.64 33.9367 36.1285 34.5274 37.4481C35.1181 38.7676 36.1655 39.8294 37.4768 40.4381C38.7881 41.0467 40.275 41.1613 41.664 40.7606C43.053 40.36 44.2506 39.4712 45.0364 38.2577C45.8222 37.0441 46.1434 35.5876 45.9408 34.1561C45.7382 32.7246 45.0254 31.4145 43.9337 30.4668C42.842 29.5191 41.4448 28.9976 39.9992 28.9982ZM28.5828 26.9987H34.131L30.3323 32.6874L28.5828 26.9987ZM26.8834 28.2684L28.6528 33.9971H27.913C27.6658 32.5461 26.8937 31.2366 25.7437 30.3179L26.8834 28.2684ZM24.754 32.1075C25.2926 32.6218 25.6769 33.2762 25.8637 33.9971H23.7044L24.754 32.1075ZM22.0049 38.996C20.9444 38.996 19.9273 38.5747 19.1774 37.8247C18.4275 37.0747 18.0062 36.0575 18.0062 34.9969C18.0062 33.9363 18.4275 32.9191 19.1774 32.1691C19.9273 31.4191 20.9444 30.9978 22.0049 30.9978C22.3427 31.002 22.6786 31.049 23.0046 31.1377L21.1352 34.507C21.0498 34.659 21.0056 34.8307 21.007 35.0051C21.0084 35.1795 21.0554 35.3504 21.1433 35.501C21.2313 35.6516 21.357 35.7766 21.5082 35.8635C21.6593 35.9505 21.8306 35.9964 22.0049 35.9967H25.8637C25.6426 36.853 25.144 37.6118 24.4458 38.1545C23.7476 38.6972 22.8892 38.9931 22.0049 38.996ZM39.9992 38.996C39.1666 38.9899 38.3568 38.7241 37.6826 38.2356C37.0084 37.7471 36.5034 37.0604 36.2382 36.2711C35.9729 35.4819 35.9606 34.6296 36.2029 33.833C36.4452 33.0364 36.9301 32.3354 37.5899 31.8276L39.0695 35.3868L40.9189 34.617L39.4393 31.0578C39.6243 31.0246 39.8114 31.0046 39.9992 30.9978C41.0597 30.9978 42.0768 31.4191 42.8267 32.1691C43.5766 32.9191 43.9979 33.9363 43.9979 34.9969C43.9979 36.0575 43.5766 37.0747 42.8267 37.8247C42.0768 38.5747 41.0597 38.996 39.9992 38.996Z" fill="#2B6BF3"/>
<path d="M58.0613 9L59 9.25286L48.9387 47L48 46.7471L58.0613 9Z" fill="#C2D2F4"/>
<path d="M58.0613 9L59 9.25286L48.9387 47L48 46.7471L58.0613 9Z" fill="#B7C6E7"/>
</svg>
