<svg width="56" height="56" viewBox="0 0 56 56" fill="none" xmlns="http://www.w3.org/2000/svg">
<path fill-rule="evenodd" clip-rule="evenodd" d="M18 39C19.1046 39 20 38.1046 20 37C20 35.8954 19.1046 35 18 35C16.8954 35 16 35.8954 16 37C16 38.1046 16.8954 39 18 39ZM18 41C20.2091 41 22 39.2091 22 37C22 34.7909 20.2091 33 18 33C15.7909 33 14 34.7909 14 37C14 39.2091 15.7909 41 18 41Z" fill="#2B6BF3"/>
<path fill-rule="evenodd" clip-rule="evenodd" d="M39 39C40.1046 39 41 38.1046 41 37C41 35.8954 40.1046 35 39 35C37.8954 35 37 35.8954 37 37C37 38.1046 37.8954 39 39 39ZM39 41C41.2091 41 43 39.2091 43 37C43 34.7909 41.2091 33 39 33C36.7909 33 35 34.7909 35 37C35 39.2091 36.7909 41 39 41Z" fill="#2B6BF3"/>
<path d="M29 30H11L11 36H14V38H11C9.89543 38 9 37.1046 9 36V30C9 28.8954 9.89543 28 11 28H27V17C27 15.8954 27.8954 15 29 15H39.2639C40.0215 15 40.714 15.428 41.0528 16.1056L46.7889 27.5777C46.9277 27.8554 47 28.1616 47 28.4721V36C47 37.1046 46.1046 38 45 38H43V36H45V28.4721L39.2639 17L29 17V30Z" fill="#2B6BF3"/>
<path d="M35 36H25V38H35V36Z" fill="#2B6BF3"/>
<path d="M16 20.3962V18.0409C16.0007 18.0399 16.0014 18.039 16.0021 18.038L16.001 19.0005C16.0005 19.4658 16.0002 19.931 16 20.3962ZM17.0029 18.0016L16.1469 18L16.342 18L17.2483 18L17.8164 18.0001C17.7651 18.0003 17.7139 18.0004 17.6629 18.0006C17.4392 18.0013 17.2183 18.002 17.0029 18.0016ZM19.0112 18.0049C18.8581 18.0024 18.7041 18.001 18.5499 18.0002L19.9987 18.0004C20.549 18.0005 21.0992 18.0006 21.6079 18.0008C21.5467 18.0009 21.4856 18.0009 21.4246 18.001C21.2825 18.0013 21.1409 18.0015 20.9996 18.0016L20.0037 18.0025L20.0006 18.9985C20 19.1773 19.9997 19.3525 19.9996 19.5254C19.9988 19.3479 19.9974 19.1698 19.9951 18.9916L19.9823 18.0204L19.0112 18.0049ZM23.0038 18.0029C22.8897 18.0021 22.7755 18.0016 22.6613 18.0012C22.6912 18.0012 22.7207 18.0012 22.7499 18.0012C23.1252 18.0014 23.4378 18.0017 23.6567 18.002L23.7388 18.0021L23.7429 18.0044L23.9605 18.0032C23.9629 18.005 23.9655 18.007 23.9681 18.0092L23.0038 18.0029ZM23.9969 18.0396C23.9973 18.0402 23.9978 18.0408 23.9983 18.0415V20.2592C23.9983 20.2552 23.9983 20.2512 23.9983 20.2472C23.9978 19.8318 23.9974 19.4169 23.9972 19.0025L23.9969 18.0396ZM23.9947 23.9992C23.9964 23.6512 23.9976 23.3031 23.9983 22.955V24.9578C23.9958 24.9612 23.9931 24.9648 23.99 24.9685L23.9947 23.9992ZM23.9686 24.99C23.966 24.9923 23.9634 24.9943 23.961 24.9961L22.2139 24.997C22.4757 24.9963 22.7374 24.9954 22.9991 24.9943L23.9686 24.99ZM18.8808 24.9982C19.0037 24.9983 19.1266 24.9984 19.2495 24.9985L16.0411 25.0001C16.041 25 16.041 25 16.0409 24.9999C16.0399 24.9992 16.0389 24.9985 16.0379 24.9977L17.0013 24.9974C17.6269 24.9972 18.2536 24.9977 18.8808 24.9982ZM16.0018 24.9616C16.0012 24.9608 16.0006 24.96 16 24.9592V22.1772C16.0002 22.7842 16.0006 23.3912 16.001 23.9982L16.0018 24.9616ZM19.9993 20.5035C19.9995 20.4486 19.9996 20.3936 19.9997 20.3385C19.9998 20.3762 19.9998 20.4139 19.9998 20.4516C20 20.6344 20.0002 20.8169 20.0002 21.0006C19.9995 21.0006 19.9989 21.0006 19.9982 21.0006C19.9984 20.8504 19.9988 20.6997 19.9992 20.5481L19.9993 20.5035ZM15.9984 18H15.9983V17.9965V17L15.9984 17.9965L15.9984 18Z" stroke="#FFDD2D" stroke-width="2"/>
</svg>
