<svg width="105" height="57" viewBox="0 0 105 57" fill="none" xmlns="http://www.w3.org/2000/svg">
<g clip-path="url(#clip0_5717_1817)">
<path d="M104.839 42.0716C104.838 42.4307 104.697 42.775 104.446 43.0288C104.195 43.2827 103.856 43.4254 103.501 43.4258C103.325 43.4263 103.151 43.3913 102.989 43.3229C102.827 43.2545 102.68 43.1542 102.556 43.0276C102.432 42.9025 102.333 42.7534 102.265 42.5892C102.198 42.4249 102.164 42.2488 102.164 42.0709C102.164 41.7085 102.303 41.3689 102.556 41.1139C102.808 40.8574 103.143 40.7175 103.501 40.7175C103.859 40.7175 104.193 40.8574 104.446 41.1139C104.57 41.2394 104.669 41.3887 104.737 41.553C104.804 41.7174 104.839 41.8937 104.839 42.0716ZM103.501 40.5558C103.104 40.5561 102.724 40.7158 102.444 40.9999C102.163 41.284 102.006 41.6692 102.005 42.0709C102.005 42.4775 102.161 42.858 102.444 43.1419C102.582 43.2833 102.747 43.3955 102.929 43.4718C103.111 43.5481 103.305 43.5871 103.502 43.5864C103.902 43.5864 104.277 43.4294 104.559 43.1419C104.7 43.0021 104.81 42.8353 104.886 42.6513C104.961 42.4674 104.999 42.2701 104.998 42.0709C104.999 41.8717 104.961 41.6744 104.885 41.4904C104.81 41.3064 104.699 41.1395 104.559 40.9992C104.421 40.8583 104.256 40.7466 104.074 40.6705C103.892 40.5944 103.698 40.5554 103.501 40.5558Z" fill="#D7DFF2"/>
<path d="M103.263 41.3372V41.8855C103.263 41.8855 103.826 41.9231 103.826 41.6146C103.826 41.2562 103.263 41.3336 103.263 41.3372ZM103.263 42.232V43.1037H102.899V41.028C103.348 41.028 104.141 40.909 104.141 41.6049C104.141 42.0494 103.815 42.1651 103.815 42.1651L104.253 43.1041H103.891L103.472 42.2328L103.263 42.232ZM79.1166 34.7808V28.4017C79.1166 28.4017 79.0266 25.5049 76.1578 25.5049C74.3601 25.5049 73.198 27.1144 73.198 28.4017C73.198 30.4507 75.0515 31.2967 76.1578 31.2967C76.8199 31.2967 77.2642 31.1809 78.2495 30.4785C78.2495 32.9955 78.2202 34.4654 78.2495 34.4586C77.5917 34.6344 77.352 34.7743 76.1578 34.7743C72.5109 34.7743 69.6468 31.854 69.6468 28.4013C69.6468 24.0133 73.5333 22.0283 76.1578 22.0283C79.4448 22.0283 82.6682 24.5974 82.6682 28.4013C82.6682 30.7422 82.6742 30.6843 82.6742 31.3278V34.7845L79.1166 34.7808ZM52.9367 28.9124V22.3492L56.5247 20.7697V29.6492C56.5247 36.6132 45.105 36.6132 45.105 29.7664V25.8265L48.6919 24.2202V28.9464C48.6916 32.2251 52.9367 32.1904 52.9367 28.9124Z" fill="#D7DFF2"/>
<path d="M69.08 34.9253C69.08 34.9253 67.2662 35.0385 66.0924 34.3991C63.9386 33.2283 64.1771 29.807 64.1771 29.807V23.136H61.8465V19.6222H64.1771V17.4574L67.7655 15.8201V19.7401H70.0968V23.1939H67.7655V30.0689C67.7655 30.0689 67.8258 31.7048 69.0808 31.7048L69.08 34.9253ZM57.4807 22.3428H61.0676V34.7716H57.4807V22.3428ZM57.4807 21.3793L61.0676 21.355V18.8029L57.4807 20.3839V21.3793Z" fill="#D7DFF2"/>
<path d="M90.1499 21.4953V25.1831C87.5194 25.1831 87.6372 26.7623 87.6372 28.2257V34.7809H84.0499V26.1188C84.0499 21.6129 87.699 21.4953 90.1499 21.4953ZM83.4142 9.33055C83.301 9.08279 82.8361 9.04879 82.3207 9.23072L82.175 8.90882L82.3268 8.8372L82.2004 4.37177L78.9327 1.37081L78.7795 1.44243L78.6327 1.12052C79.1049 0.84166 79.3805 0.461884 79.2698 0.214849C79.1388 -0.0687165 78.5488 -0.0716101 77.9506 0.207254C77.3496 0.48865 76.9693 0.945104 77.0967 1.22795C77.2082 1.47534 77.6728 1.5097 78.1885 1.32777L78.337 1.64968L75.6054 2.92355L75.4597 2.6002C75.93 2.32315 76.2093 1.94301 76.0954 1.69597C75.9661 1.41169 75.3754 1.40843 74.7758 1.69019C74.1751 1.96869 73.7948 2.42478 73.9219 2.70943C74.0351 2.95683 74.5001 2.98938 75.0154 2.80745L75.1622 3.12899L72.5338 4.3573L72.3881 4.03539C72.8598 3.75508 73.1373 3.37531 73.0231 3.12791C72.8945 2.84507 72.3035 2.84181 71.7038 3.12068C71.1035 3.40207 70.7239 3.85816 70.8503 4.14101C70.9635 4.38877 71.4285 4.42276 71.9438 4.24083L72.091 4.56274L71.766 4.7132L70.7728 7.53367L34.046 24.4872C32.3068 22.9244 29.3502 22.592 26.6207 23.8673C23.1709 25.4754 21.3964 29.0261 22.6559 31.7959C23.9155 34.5672 27.7331 35.509 31.1829 33.8995C33.6682 32.7388 35.2774 30.5705 35.5145 28.413L37.333 27.5576C37.4594 27.5073 38.5511 27.1149 39.7957 28.3772C40.5224 30.0265 41.1699 31.8046 40.756 32.9215C40.681 33.1248 40.4513 33.7414 39.235 34.2894C38.4215 34.6562 37.7122 34.8186 36.8133 35.024C35.4791 35.3278 33.8164 35.708 31.2522 36.9037C29.0234 37.9429 27.7699 39.9466 26.4414 42.0701C24.664 44.9105 22.6499 48.1284 17.6716 50.4498C16.3445 51.0683 15.1217 51.1529 13.9318 50.708C10.2741 49.3405 7.45216 43.1338 6.52721 41.0957C4.63803 36.9399 2.27388 31.0128 3.55524 27.499C3.94807 26.4233 4.68053 25.6486 5.7944 25.127C10.8455 22.7714 14.4439 22.9486 17.6155 23.1048C19.9389 23.217 22.1324 23.324 24.288 22.3196C26.8521 21.1246 27.9485 20.22 28.8295 19.4944C29.4134 19.013 29.8359 18.6658 30.6212 18.2994C31.6704 17.8093 32.6914 17.7543 33.6492 18.1341C35.0999 18.7092 36.103 20.1035 36.558 21.2186L39.5107 19.9802C38.5972 17.741 36.8419 15.9245 34.8149 15.1198C33.0407 14.4163 31.1294 14.498 29.2845 15.3596C28.1324 15.8963 27.4617 16.4486 26.8143 16.9821C26.0318 17.6259 25.1476 18.3547 22.9509 19.3794C21.5064 20.0532 19.8586 19.9711 17.7723 19.8699C14.406 19.7046 10.2191 19.5006 4.45947 22.1869C2.56172 23.0734 1.24966 24.4825 0.558267 26.3781C-1.11592 30.9673 1.31751 37.3775 3.62416 42.451C5.47049 46.5124 8.4321 52.1038 12.8236 53.7441C14.8214 54.492 16.902 54.3727 19.0101 53.3907C24.8419 50.6704 27.2253 46.8611 29.1406 43.8019C30.3001 41.9482 31.2179 40.4837 32.5893 39.845C34.8474 38.7896 36.2644 38.4662 37.5147 38.1816C38.5004 37.9552 39.4318 37.7436 40.5335 37.2473C42.1534 36.5182 43.2362 35.4447 43.7483 34.0572C44.7247 31.4125 43.379 28.4879 42.1916 25.9083L41.953 25.3853L72.3885 11.0898L75.1604 12.1807L75.484 12.0288L75.6311 12.3507C75.159 12.6292 74.8833 13.0093 74.9958 13.2563C75.1247 13.5399 75.7154 13.5424 76.3139 13.2639C76.9139 12.9822 77.2953 12.5261 77.1671 12.2432C77.0543 11.9959 76.5904 11.9619 76.0754 12.1438L75.9282 11.8219L78.5552 10.5968L78.7024 10.9187C78.2317 11.1958 77.9549 11.5759 78.0671 11.823C78.1963 12.1076 78.7867 12.1105 79.3852 11.8306C79.9855 11.5503 80.368 11.0942 80.2384 10.8099C80.1259 10.5625 79.662 10.5296 79.1456 10.7118L78.9999 10.3899L81.7304 9.11715L81.875 9.43942C81.4047 9.71648 81.1265 10.0963 81.2401 10.3436C81.3694 10.6269 81.9597 10.6301 82.5593 10.3498C83.161 10.0713 83.5439 9.61376 83.4142 9.33055ZM80.7251 53.7965C80.7251 53.7965 78.9759 53.8992 77.8356 53.2702C75.8047 52.1497 75.9872 48.1136 75.9872 48.1136V41.0313H73.7334V37.4878H75.9872V35.9785H79.4595L79.4538 37.6058H81.7079V41.091H79.4538V48.9404C79.4538 48.9404 79.5123 50.5778 80.7251 50.5778V53.7965Z" fill="#D7DFF2"/>
<path d="M52.0625 53.5451C49.033 57.0481 45.801 57.0004 44.5886 57.0004C38.4286 57.0004 34.6638 51.7034 34.6638 46.9472C34.6638 42.6528 37.5019 37.9884 43.038 37.0607C46.5206 36.4751 49.9055 37.821 52.2639 40.5044C51.5061 41.0679 49.7908 42.3964 49.7908 42.3964C47.9209 40.6577 46.6085 40.0765 44.5886 40.0765C42.9733 40.0765 37.8061 41.4238 37.8061 46.9472C37.8061 50.5782 40.6499 53.8432 44.5886 53.8178C47.5427 53.8016 48.8319 52.2666 49.638 51.4994L52.0625 53.5451ZM70.7278 46.5225V53.6735H74.1955V45.4707C74.1955 38.5046 63.1568 38.5046 63.1568 45.3532V53.6735H66.6259V46.4061C66.6259 43.2453 70.7278 43.1874 70.7278 46.5225ZM101.121 40.4472V44.135C98.5791 44.135 98.6955 45.7127 98.6955 47.1761V53.6797H95.2275V45.0685C95.2282 40.9655 98.7941 40.4472 101.121 40.4472ZM85.7859 44.6378C85.7859 44.6378 84.3867 45.92 85.0531 47.6416L88.7504 43.8959C88.7504 43.8952 87.3851 43.1859 85.7859 44.6378ZM86.7908 50.5326C86.7662 50.5489 87.609 50.695 87.8504 50.695C89.6867 50.695 90.5942 49.3777 90.5942 49.3777C90.5942 49.3777 93.6101 49.3864 94.0408 49.3792C94.0408 49.3792 93.244 51.4824 91.8081 52.4203C86.2794 56.0303 82.7821 51.5573 82.095 50.3865C81.0608 48.6156 80.4987 43.5129 84.4185 41.3084C90.3149 37.9953 93.6015 43.7556 93.6015 43.7556L86.7908 50.5326Z" fill="#D7DFF2"/>
<path d="M54.3069 44.6377C54.3069 44.6377 52.9055 45.9185 53.5723 47.6416L57.2703 43.8966C57.2703 43.8966 55.9053 43.1874 54.3069 44.6377ZM62.561 49.3799C62.561 49.3799 61.7639 51.4835 60.3279 52.421C54.7993 56.0328 51.302 51.5598 50.6149 50.3872C49.5793 48.6167 49.0172 43.5136 52.938 41.3095C58.8348 37.9957 62.1214 43.7549 62.1214 43.7549L55.3114 50.5326C55.2882 50.5489 56.1292 50.695 56.3707 50.695C58.2084 50.695 59.1134 49.3777 59.1134 49.3777L62.561 49.3799Z" fill="#D7DFF2"/>
</g>
<defs>
<clipPath id="clip0_5717_1817">
<rect width="105" height="57" fill="white"/>
</clipPath>
</defs>
</svg>
