<svg width="22" height="22" viewBox="0 0 22 22" fill="none" xmlns="http://www.w3.org/2000/svg">
<path fill-rule="evenodd" clip-rule="evenodd" d="M6.46581 0.0664583C7.63915 0.0130625 8.01407 0 11.0015 0H10.9981C13.9864 0 14.36 0.0130625 15.5333 0.0664583C16.7044 0.120083 17.5042 0.305479 18.2054 0.5775C18.9296 0.858229 19.5415 1.23406 20.1534 1.84594C20.7653 2.45735 21.1411 3.07106 21.423 3.79454C21.6934 4.49396 21.879 5.29329 21.934 6.46433C21.9867 7.63767 22.0005 8.01258 22.0005 11C22.0005 13.9874 21.9867 14.3614 21.934 15.5348C21.879 16.7053 21.6934 17.5049 21.423 18.2045C21.1411 18.9278 20.7653 19.5415 20.1534 20.1529C19.5422 20.7648 18.9294 21.1415 18.2061 21.4225C17.5063 21.6945 16.706 21.8799 15.5349 21.9335C14.3616 21.9869 11.0001 22 11.0001 22C11.0001 22 7.63823 21.9869 6.46489 21.9335C5.29406 21.8799 4.49449 21.6945 3.79461 21.4225C3.07158 21.1415 2.45787 20.7648 1.84667 20.1529C1.23502 19.5415 0.859185 18.9278 0.577994 18.2043C0.3062 17.5049 0.120802 16.7056 0.0669473 15.5345C0.0137801 14.3612 0.000488281 13.9874 0.000488281 11C0.000488281 8.01258 0.0142384 7.63744 0.0667181 6.4641C0.119427 5.29352 0.305054 4.49396 0.577765 3.79431C0.859643 3.07106 1.23548 2.45735 1.84736 1.84594C2.45878 1.23429 3.0725 0.858458 3.79599 0.5775C4.49541 0.305479 5.29475 0.120083 6.46581 0.0664583ZM11.0005 2C11.0005 2 7.5712 1.99557 6.55644 2.04141C5.48392 2.09068 4.90161 2.26943 4.51385 2.42068C4.00051 2.62051 3.63384 2.85885 3.24884 3.24385C2.86384 3.62885 2.62504 3.99551 2.42566 4.50885C2.2751 4.8966 2.09589 5.47868 2.04685 6.55118C1.99414 7.71076 2.00049 11 2.00049 11C2.00049 11 1.99414 14.2805 2.04685 15.4401C2.09566 16.5126 2.2751 17.0947 2.42566 17.482C2.6255 17.9955 2.86384 18.3613 3.24884 18.7463C3.63384 19.1313 4.00051 19.3696 4.51385 19.569C4.90184 19.7196 5.48392 19.8988 6.55644 19.9483C7.71603 20.001 11.0005 20 11.0005 20C11.0005 20 14.2868 20.001 15.4464 19.9483C16.5189 19.8992 17.1014 19.7205 17.4887 19.5692C18.0023 19.3698 18.3678 19.1315 18.7528 18.7465C19.1378 18.3617 19.3766 17.9962 19.576 17.4829C19.7266 17.0956 19.9058 16.5135 19.9548 15.441C20.0075 14.2814 20.0005 11 20.0005 11C20.0005 11 20.0075 7.71351 19.9548 6.55393C19.906 5.48143 19.7266 4.89935 19.576 4.51205C19.3762 3.99872 19.1378 3.63205 18.7528 3.24705C18.368 2.86205 18.0021 2.62372 17.4887 2.42435C17.101 2.27378 16.5189 2.09457 15.4464 2.04553C14.2865 1.99282 11.0005 2 11.0005 2Z" fill="white"/>
<path fill-rule="evenodd" clip-rule="evenodd" d="M11.0001 15C13.2092 15 15.0001 13.2091 15.0001 11C15.0001 8.79086 13.2092 7 11.0001 7C8.79093 7 7.00007 8.79086 7.00007 11C7.00007 13.2091 8.79093 15 11.0001 15ZM11.0001 17C14.3138 17 17.0001 14.3137 17.0001 11C17.0001 7.68629 14.3138 5 11.0001 5C7.68636 5 5.00007 7.68629 5.00007 11C5.00007 14.3137 7.68636 17 11.0001 17Z" fill="white"/>
<path fill-rule="evenodd" clip-rule="evenodd" d="M17.0001 4C16.448 4 16.0001 4.44747 16.0001 4.99983C16.0001 5.55201 16.448 6 17.0001 6C17.5522 6 18.0001 5.55201 18.0001 4.99983C18.0001 4.44765 17.5522 4 17.0001 4Z" fill="white"/>
</svg>
