<svg width="16" height="16" viewBox="0 0 16 16" fill="none" xmlns="http://www.w3.org/2000/svg">
<path d="M13 6C13 6.57825 12.721 7.43892 12.1734 8.50282C11.6424 9.53439 10.9235 10.6362 10.1881 11.6588C9.45537 12.6777 8.72044 13.5984 8.1676 14.2653C8.10961 14.3353 8.05367 14.4024 8 14.4665C7.94633 14.4024 7.89039 14.3353 7.8324 14.2653C7.27956 13.5984 6.54463 12.6777 5.81186 11.6588C5.07648 10.6362 4.3576 9.53439 3.82663 8.50282C3.27902 7.43892 3 6.57825 3 6C3 3.23858 5.23858 1 8 1C10.7614 1 13 3.23858 13 6Z" stroke="#C2D2F4" stroke-width="2"/>
<path d="M13 6C13 6.57825 12.721 7.43892 12.1734 8.50282C11.6424 9.53439 10.9235 10.6362 10.1881 11.6588C9.45537 12.6777 8.72044 13.5984 8.1676 14.2653C8.10961 14.3353 8.05367 14.4024 8 14.4665C7.94633 14.4024 7.89039 14.3353 7.8324 14.2653C7.27956 13.5984 6.54463 12.6777 5.81186 11.6588C5.07648 10.6362 4.3576 9.53439 3.82663 8.50282C3.27902 7.43892 3 6.57825 3 6C3 3.23858 5.23858 1 8 1C10.7614 1 13 3.23858 13 6Z" stroke="#B7C6E7" stroke-width="2"/>
</svg>
