<svg width="176" height="40" viewBox="0 0 176 40" fill="none" xmlns="http://www.w3.org/2000/svg">
<g clip-path="url(#clip0_5717_1797)">
<path d="M17.7596 21.5699C20.5268 21.4392 24.1303 20.1322 24.1303 16.799C24.1303 13.1386 20.9126 11.5703 17.8241 11.5703H5.4048V13.008H8.04313V31.0474H5.46923V32.4851H15.7648V31.0474H13.1909V22.2238H14.3492C15.8935 22.2238 17.0519 23.4656 17.4377 25.3611C18.2101 28.0404 19.0465 31.1126 19.0465 31.178C19.0465 31.178 19.4328 32.4853 20.9771 32.4853L26.6398 32.4851V31.0474H24.452L23.2291 26.0145C22.5214 23.1389 21.1057 21.6356 17.7596 21.6356C17.6955 21.5699 17.6955 21.5049 17.7596 21.5699L17.7596 21.5699ZM14.6066 20.7856H13.1909V13.0734H14.9285C17.8241 13.008 18.2743 13.9886 18.2743 15.3611V18.2369C18.2743 20.1976 17.4377 20.7859 14.6066 20.7856Z" fill="#DD3E31"/>
<path d="M19.6904 0C8.81568 0 0 8.95452 0 20.0001C0 30.9805 8.81575 39.9348 19.6904 39.9999C30.5654 39.9344 39.3811 30.9804 39.3811 20.0001C39.3811 8.95421 30.5653 0.000261452 19.6904 0ZM19.6904 38.1702C9.84529 38.1702 1.86608 30.0002 1.86608 20.0002C1.86608 10.0004 9.84525 1.89579 19.6904 1.89579C29.6002 1.89579 37.5793 10.0003 37.5793 20.0002C37.5793 30.0003 29.6002 38.1702 19.6904 38.1702Z" fill="#DD3E31"/>
<path d="M58.3802 27.7041C57.6076 25.3172 57.174 24.5288 55.3498 24.0885C55.3135 24.0885 55.3135 24.0584 55.3498 24.0584C57.174 23.8365 58.8138 22.7387 59.0914 20.6613C59.1245 20.4756 59.1245 20.2848 59.1245 20.0663C59.1245 17.8309 57.4188 15.6289 54.1105 15.6289H46.6172V32.2026H50.8287V25.6629H51.6946C53.2742 25.6629 53.7998 26.3852 54.6658 29.2149L55.5648 32.2026H59.8947L58.3802 27.7042L58.3802 27.7041ZM52.7782 22.5176H50.8287V18.7741H52.7782C53.9844 18.7741 54.9732 19.1205 54.9732 20.6001V20.6613C54.9461 22.0439 53.9217 22.5176 52.7782 22.5176V22.5176Z" fill="black"/>
<path d="M71.9077 29.4975V25.1906C71.9077 21.6388 69.3985 20.3464 66.5228 20.3765C65.0661 20.4126 63.1487 20.6345 61.5387 21.3533L61.4429 24.0892C62.8711 23.2096 64.3848 23.0189 65.6544 23.0489C67.9746 23.0823 68.3176 24.214 68.2218 24.6534C68.1922 25.0359 67.482 24.9053 66.4273 24.9053C64.4176 24.8752 60.825 25.2878 60.5805 28.4907C60.5449 28.618 60.5449 28.7426 60.5449 28.8699C60.5449 31.3514 62.5604 32.4818 64.8181 32.4818C66.3646 32.4818 67.6997 31.9514 68.4107 31.0082C68.4107 30.9746 68.4403 31.0082 68.4403 31.0082C68.4403 31.4784 68.4733 31.697 68.5301 32.2033H72.1522C71.9701 31.2867 71.9077 30.4107 71.9077 29.4975V29.4975ZM65.839 29.874C64.9104 29.874 64.2323 29.4002 64.2323 28.6481V28.4906C64.3549 27.5474 65.3462 27.0737 66.6126 27.1073C66.8606 27.1374 68.2524 27.1073 68.2524 27.1073C68.2853 27.581 68.1922 28.0538 67.9746 28.4906C67.5708 29.2764 66.8007 29.874 65.839 29.874V29.874Z" fill="black"/>
<path d="M144.956 29.4975V25.1906C144.956 21.6388 142.448 20.3464 139.569 20.3765C138.111 20.4126 136.195 20.6345 134.588 21.3533L134.489 24.0892C135.913 23.2096 137.434 23.0189 138.703 23.0489C141.023 23.0823 141.363 24.214 141.271 24.6534C141.238 25.0359 140.524 24.9053 139.473 24.9053C137.46 24.8752 133.873 25.2878 133.626 28.4907C133.593 28.618 133.593 28.7426 133.593 28.8699C133.593 31.3514 135.606 32.4818 137.866 32.4818C139.413 32.4818 140.748 31.9514 141.453 31.0082C141.453 30.9746 141.486 31.0082 141.486 31.0082C141.486 31.4784 141.519 31.697 141.578 32.2033H145.198C145.016 31.2867 144.956 30.4107 144.956 29.4975V29.4975ZM138.891 29.874C137.959 29.874 137.278 29.4002 137.278 28.6481V28.4906C137.401 27.5474 138.392 27.0737 139.661 27.1073C139.909 27.1374 141.304 27.1073 141.304 27.1073C141.334 27.581 141.238 28.0538 141.023 28.4906C140.62 29.2764 139.846 29.874 138.891 29.874V29.874Z" fill="black"/>
<path d="M82.2453 15.6612V21.6696C82.2453 21.6997 82.2453 21.6997 82.2124 21.6696C81.0062 20.4717 79.489 20.3446 78.4082 20.3446C75.2482 20.3446 73.4238 23.3314 73.4238 26.1921V26.4139C73.5161 29.7441 75.4039 32.4464 78.7154 32.4464C80.5134 32.4464 81.6273 31.9461 82.4935 30.8144C82.5231 30.7818 82.5527 30.8144 82.5527 30.8144V32.198H86.1784V15.6611H82.2453V15.6612ZM82.2453 26.444C82.2453 28.1096 81.194 29.3949 79.8592 29.3949C78.4082 29.3949 77.5422 28.173 77.4761 26.4139V26.2558C77.4761 24.7486 78.3455 23.3951 79.8592 23.3951C81.3166 23.3951 82.2453 24.6513 82.2453 26.4139V26.444V26.444Z" fill="black"/>
<path d="M88.1861 20.6279H92.1189V32.1958H88.1861V20.6279Z" fill="black"/>
<path d="M88.1861 15.6924H92.1189V18.7414H88.1861V15.6924Z" fill="black"/>
<path d="M100.319 20.377C96.5448 20.377 93.6963 22.6123 93.6963 26.4463C93.6963 30.2502 96.5448 32.4822 100.319 32.4822C104.097 32.4822 106.943 30.2502 106.943 26.4463C106.943 22.6123 104.097 20.377 100.319 20.377ZM100.319 29.686C98.4953 29.686 97.751 28.1419 97.751 26.4463C97.751 24.7173 98.4953 23.1798 100.319 23.1798C102.147 23.1798 102.888 24.7173 102.888 26.4463C102.888 28.1419 102.147 29.686 100.319 29.686Z" fill="black"/>
<path d="M108.088 28.2679C109.174 28.8354 110.659 29.3056 112.421 29.3056C113.752 29.3056 114.992 29.0236 114.992 27.7974C114.992 24.8132 107.595 26.2233 107.595 20.4092C107.595 16.5416 111.248 15.5039 114.403 15.5039C115.924 15.5039 117.405 15.7257 118.457 16.1015L118.211 19.4016C117.127 18.901 115.888 18.6466 114.714 18.6466C113.66 18.6466 111.895 18.7436 111.895 20.1573C111.895 22.7383 119.325 21.4762 119.325 27.231C119.325 31.3469 115.888 32.4809 112.421 32.4809C110.939 32.4809 109.109 32.229 107.75 31.7896L108.088 28.2679L108.088 28.2679Z" fill="black"/>
<path d="M124.711 21.8832C125.362 21.0034 126.354 20.3725 127.712 20.3725C130.839 20.3725 132.075 22.5745 132.075 24.9647V32.1958H128.145V26.2235C128.145 24.2734 127.527 23.6758 126.446 23.6758C125.267 23.6758 124.678 24.4308 124.678 26.1573V32.1958H120.751V15.6924H124.678V21.8832C124.678 21.9133 124.711 21.8832 124.711 21.8832L124.711 21.8832Z" fill="black"/>
<path d="M156.126 23.9303C155.415 23.4899 154.705 23.2992 153.776 23.2992C152.041 23.2992 150.742 24.4642 150.742 26.4777C150.742 28.3308 152.259 29.5234 153.961 29.5234C154.857 29.5234 155.759 29.3384 156.407 28.9619L156.5 31.9497C155.541 32.2928 154.361 32.4475 153.31 32.4475C149.535 32.4475 146.656 30.248 146.656 26.4143C146.656 22.5768 149.535 20.3447 153.31 20.3447C154.486 20.3447 155.541 20.5658 156.407 21.006L156.126 23.9303L156.126 23.9303Z" fill="black"/>
<path d="M162.41 26.6301V32.1992H158.48V15.6924H162.41V25.059C162.41 25.0926 162.443 25.059 162.443 25.059L166 20.3422H170.336L166.062 25.9413L170.365 32.1991H165.599L162.443 26.6301C162.443 26.6301 162.41 26.6026 162.41 26.6301V26.6301Z" fill="black"/>
<path d="M172.048 30.4647C172.048 29.327 172.959 28.4932 174.028 28.4932C175.089 28.4932 176 29.327 176 30.4647C176 31.6141 175.089 32.4482 174.028 32.4482C172.959 32.4482 172.048 31.6141 172.048 30.4647ZM174.028 32.1207C174.913 32.1207 175.605 31.4173 175.605 30.4647C175.605 29.5273 174.913 28.8206 174.028 28.8206C173.136 28.8206 172.443 29.5273 172.443 30.4647C172.443 31.4173 173.136 32.1207 174.028 32.1207ZM173.617 31.6141H173.276V29.327H174.13C174.662 29.327 174.927 29.5273 174.927 29.9788C174.927 30.3854 174.673 30.5643 174.345 30.6072L174.984 31.6141H174.602L174.011 30.6219H173.617V31.6141L173.617 31.6141ZM174.026 30.3278C174.315 30.3278 174.569 30.3063 174.569 29.9581C174.569 29.6726 174.319 29.6246 174.079 29.6246H173.617V30.3278H174.026Z" fill="black"/>
</g>
<defs>
<clipPath id="clip0_5717_1797">
<rect width="176" height="40" fill="white"/>
</clipPath>
</defs>
</svg>
