<svg width="22" height="16" viewBox="0 0 22 16" fill="none" xmlns="http://www.w3.org/2000/svg">
<path fill-rule="evenodd" clip-rule="evenodd" d="M19.5951 0.477677C20.5417 0.740516 21.2873 1.51497 21.5402 2.49845C22 4.2809 22 8 22 8C22 8 22 11.719 21.5402 13.5015C21.2873 14.485 20.5417 15.2595 19.5951 15.5225C17.8796 16 11 16 11 16C11 16 4.12037 16 2.40475 15.5225C1.45813 15.2595 0.712625 14.485 0.459625 13.5015C0 11.719 0 8 0 8C0 8 0 4.2809 0.459625 2.49845C0.712625 1.51497 1.45813 0.740516 2.40475 0.477677C4.12037 0 11 0 11 0C11 0 17.8796 0 19.5951 0.477677ZM9 5V12L14.5 8.5L9 5Z" fill="white"/>
</svg>
