<svg width="328" height="190" viewBox="0 0 328 190" fill="none" xmlns="http://www.w3.org/2000/svg">
<path d="M245.126 56.617C245.126 57.7216 244.231 58.617 243.126 58.617H241.135C240.031 58.617 239.135 59.5125 239.135 60.617V159.197C239.135 160.301 238.24 161.197 237.135 161.197H234.645C233.541 161.197 232.645 160.301 232.645 159.197V117.213C232.645 116.108 231.75 115.213 230.645 115.213H227.656C226.551 115.213 225.656 114.317 225.656 113.213V73.253C225.656 72.4259 224.985 71.7553 224.158 71.7553H223.924C223.226 71.7553 222.661 71.1897 222.661 70.492V69.9776C222.661 69.564 222.325 69.2287 221.912 69.2287C221.498 69.2287 221.163 68.8935 221.163 68.4799V68.2181C221.163 67.6599 220.71 67.2075 220.152 67.2075H215.175C214.07 67.2075 213.175 66.312 213.175 65.2075V57.856C213.175 57.7181 213.063 57.6064 212.925 57.6064C212.788 57.6064 212.676 57.4946 212.676 57.3568V45.978C212.676 45.7022 212.452 45.4787 212.177 45.4787C211.901 45.4787 211.677 45.7022 211.677 45.978V57.3568C211.677 57.4946 211.566 57.6064 211.428 57.6064C211.29 57.6064 211.178 57.7181 211.178 57.856V65.2075C211.178 66.312 210.283 67.2075 209.178 67.2075H204.7C204.142 67.2075 203.689 67.666 203.689 68.2242C203.689 68.7757 203.242 69.2287 202.691 69.2287C202.14 69.2287 201.693 69.6758 201.693 70.2272V70.5072C201.693 71.1965 201.134 71.7553 200.444 71.7553C199.755 71.7553 199.196 72.3141 199.196 73.0034V155.154C199.196 156.259 198.301 157.154 197.196 157.154H196.204C195.099 157.154 194.204 156.259 194.204 155.154V114.686C194.204 113.582 193.309 112.686 192.204 112.686H175.735C174.631 112.686 173.735 113.582 173.735 114.686V177.891C173.735 178.718 173.065 179.388 172.237 179.388C171.41 179.388 170.74 178.718 170.74 177.891V169.264C170.74 168.437 170.069 167.766 169.242 167.766C168.415 167.766 167.744 167.095 167.744 166.268V154.606C167.744 153.502 166.849 152.606 165.744 152.606H151.772C150.667 152.606 149.772 153.502 149.772 154.606V168.798C149.772 169.902 148.876 170.798 147.772 170.798H147.279C146.174 170.798 145.279 169.902 145.279 168.798V159.154C145.279 158.05 144.383 157.154 143.279 157.154H134.298C133.194 157.154 132.298 156.259 132.298 155.154V118.729C132.298 117.624 131.403 116.729 130.298 116.729H128.307C127.203 116.729 126.307 115.833 126.307 114.729V101.043C126.307 99.938 125.412 99.0426 124.307 99.0426H122.816C121.711 99.0426 120.816 98.1471 120.816 97.0426V81.3382C120.816 80.511 120.145 79.8404 119.318 79.8404C118.491 79.8404 117.82 79.1699 117.82 78.3427V52.541C117.82 51.9896 117.373 51.5426 116.822 51.5426C116.27 51.5426 115.823 51.9896 115.823 52.541V78.3427C115.823 79.1699 115.153 79.8404 114.326 79.8404C113.499 79.8404 112.828 80.511 112.828 81.3381V97.0426C112.828 98.1471 111.933 99.0426 110.828 99.0426H109.836C108.731 99.0426 107.836 99.938 107.836 101.043V114.729C107.836 115.833 106.94 116.729 105.836 116.729H103.346C102.241 116.729 101.346 117.624 101.346 118.729V160.46C101.346 161.425 100.563 162.207 99.5982 162.207C98.6331 162.207 97.8508 161.425 97.8508 160.46V130.351C97.8508 129.247 96.9554 128.351 95.8508 128.351H94.8585C93.7539 128.351 92.8584 127.456 92.8584 126.351V44.9521C92.8584 43.8476 91.963 42.9521 90.8585 42.9521H88.8676C87.763 42.9521 86.8676 42.0567 86.8676 40.9521V16.6512C86.8676 15.5483 85.9735 14.6543 84.8706 14.6543C83.7677 14.6543 82.8737 13.7602 82.8737 12.6573V8.40113C82.8737 7.87489 82.6663 7.36986 82.2964 6.9955L75.9723 0.594372C75.5966 0.214051 75.0842 0 74.5496 0H69.8965C68.7919 0 67.8965 0.895429 67.8965 2V13.1565C67.8965 13.9837 67.226 14.6543 66.3988 14.6543C65.5716 14.6543 64.9011 15.3248 64.9011 16.152V41.704C64.9011 42.3933 64.3423 42.9521 63.653 42.9521C62.9637 42.9521 62.4049 43.5109 62.4049 44.2002V110.686C62.4049 111.791 61.5094 112.686 60.4049 112.686H58.9132C57.8087 112.686 56.9132 111.791 56.9132 110.686V90.4309C56.9132 89.3263 56.0178 88.4309 54.9132 88.4309H27.4612C26.3566 88.4309 25.4612 89.3263 25.4612 90.4309V177.891C25.4612 178.718 24.7906 179.388 23.9635 179.388C23.1363 179.388 22.4658 178.718 22.4658 177.891V164.204C22.4658 163.102 21.5717 162.207 20.4688 162.207C19.3659 162.207 18.4718 161.313 18.4718 160.21V145.514C18.4718 144.687 17.8013 144.016 16.9741 144.016C16.147 144.016 15.4764 143.345 15.4764 142.518V124.287C15.4764 123.183 14.581 122.287 13.4764 122.287H4.99543C3.89086 122.287 2.99543 123.183 2.99543 124.287V142.518C2.99543 143.345 2.32488 144.016 1.49772 144.016C0.67055 144.016 0 144.687 0 145.514V188C0 189.105 0.895429 190 2 190H326C327.105 190 328 189.105 328 188V165.218C328 164.114 327.105 163.218 326 163.218H312.027C310.923 163.218 310.027 164.114 310.027 165.218V169.044C310.027 169.734 309.469 170.293 308.779 170.293H308.542C307.984 170.293 307.531 169.84 307.531 169.282V169.02C307.531 168.607 307.196 168.271 306.782 168.271C306.369 168.271 306.033 167.936 306.033 167.522V102.053C306.033 100.949 305.138 100.053 304.033 100.053H274.584C273.48 100.053 272.584 100.949 272.584 102.053V107.654C272.584 108.759 271.689 109.654 270.584 109.654H267.595C266.491 109.654 265.595 108.759 265.595 107.654V45.9628C265.595 44.8582 264.7 43.9628 263.595 43.9628H254.948C254.414 43.9628 253.901 44.1768 253.525 44.5571L245.704 52.4742C245.334 52.8486 245.126 53.3536 245.126 53.8799V56.617Z" fill="#E3EBFA"/>
</svg>
