<svg width="8" height="8" viewBox="0 0 8 8" fill="none" xmlns="http://www.w3.org/2000/svg">
<path d="M0.276314 0.269411C-0.0921045 0.628626 -0.0921046 1.21103 0.276314 1.57024L2.76841 4.00008L0.276486 6.42976C-0.0919318 6.78897 -0.0919317 7.37137 0.276486 7.73059C0.644904 8.0898 1.24223 8.0898 1.61065 7.73059L4 5.40092L6.38935 7.73059C6.75777 8.0898 7.3551 8.0898 7.72351 7.73059C8.09193 7.37137 8.09193 6.78897 7.72351 6.42976L5.23159 4.00008L7.72369 1.57024C8.0921 1.21103 8.0921 0.628626 7.72369 0.269411C7.35527 -0.0898037 6.75794 -0.0898037 6.38953 0.269411L4 2.59924L1.61047 0.269411C1.24206 -0.0898037 0.644732 -0.0898037 0.276314 0.269411Z" fill="#C4C4C4"/>
</svg>
