<svg width="4" height="52" viewBox="0 0 4 52" fill="none" xmlns="http://www.w3.org/2000/svg">
<path d="M4 50C4 51.1046 3.10457 52 2 52C0.89543 52 0 51.1046 0 50C0 48.8954 0.89543 48 2 48C3.10457 48 4 48.8954 4 50Z" fill="#2B6BF3" fill-opacity="0.08"/>
<path d="M4 10C4 11.1046 3.10457 12 2 12C0.89543 12 0 11.1046 0 10C0 8.89543 0.89543 8 2 8C3.10457 8 4 8.89543 4 10Z" fill="#2B6BF3" fill-opacity="0.08"/>
<path d="M4 18C4 19.1046 3.10457 20 2 20C0.89543 20 0 19.1046 0 18C0 16.8954 0.89543 16 2 16C3.10457 16 4 16.8954 4 18Z" fill="#2B6BF3" fill-opacity="0.08"/>
<path d="M4 26C4 27.1046 3.10457 28 2 28C0.89543 28 0 27.1046 0 26C0 24.8954 0.89543 24 2 24C3.10457 24 4 24.8954 4 26Z" fill="#2B6BF3" fill-opacity="0.08"/>
<path d="M4 34C4 35.1046 3.10457 36 2 36C0.89543 36 0 35.1046 0 34C0 32.8954 0.89543 32 2 32C3.10457 32 4 32.8954 4 34Z" fill="#2B6BF3" fill-opacity="0.08"/>
<path d="M4 42C4 43.1046 3.10457 44 2 44C0.89543 44 0 43.1046 0 42C0 40.8954 0.89543 40 2 40C3.10457 40 4 40.8954 4 42Z" fill="#2B6BF3" fill-opacity="0.08"/>
<path d="M4 2C4 3.10457 3.10457 4 2 4C0.89543 4 0 3.10457 0 2C0 0.89543 0.89543 0 2 0C3.10457 0 4 0.89543 4 2Z" fill="#2B6BF3" fill-opacity="0.08"/>
</svg>
