<svg width="40" height="40" viewBox="0 0 40 40" fill="none" xmlns="http://www.w3.org/2000/svg">
<path d="M28.1501 20H26.8499C26.6245 20 26.4083 20.1054 26.2489 20.2929C26.0895 20.4804 26 20.7348 26 21C26 21.2652 26.0895 21.5196 26.2489 21.7071C26.4083 21.8946 26.6245 22 26.8499 22H28.1501C28.3755 22 28.5917 21.8946 28.7511 21.7071C28.9105 21.5196 29 21.2652 29 21C29 20.7348 28.9105 20.4804 28.7511 20.2929C28.5917 20.1054 28.3755 20 28.1501 20Z" fill="#2B6BF3"/>
<path d="M32.1513 20H30.8487C30.6236 20 30.4077 20.1054 30.2486 20.2929C30.0894 20.4804 30 20.7348 30 21C30 21.2652 30.0894 21.5196 30.2486 21.7071C30.4077 21.8946 30.6236 22 30.8487 22H32.1513C32.3764 22 32.5923 21.8946 32.7514 21.7071C32.9106 21.5196 33 21.2652 33 21C33 20.7348 32.9106 20.4804 32.7514 20.2929C32.5923 20.1054 32.3764 20 32.1513 20Z" fill="#2B6BF3"/>
<path d="M36.1513 20H34.8487C34.6236 20 34.4077 20.1054 34.2486 20.2929C34.0894 20.4804 34 20.7348 34 21C34 21.2652 34.0894 21.5196 34.2486 21.7071C34.4077 21.8946 34.6236 22 34.8487 22H36.1513C36.3764 22 36.5923 21.8946 36.7514 21.7071C36.9106 21.5196 37 21.2652 37 21C37 20.7348 36.9106 20.4804 36.7514 20.2929C36.5923 20.1054 36.3764 20 36.1513 20Z" fill="#2B6BF3"/>
<path d="M28.1501 24H26.8499C26.6245 24 26.4083 24.1054 26.2489 24.2929C26.0895 24.4804 26 24.7348 26 25C26 25.2652 26.0895 25.5196 26.2489 25.7071C26.4083 25.8946 26.6245 26 26.8499 26H28.1501C28.3755 26 28.5917 25.8946 28.7511 25.7071C28.9105 25.5196 29 25.2652 29 25C29 24.7348 28.9105 24.4804 28.7511 24.2929C28.5917 24.1054 28.3755 24 28.1501 24Z" fill="#2B6BF3"/>
<path d="M32.1513 24H30.8487C30.6236 24 30.4077 24.1054 30.2486 24.2929C30.0894 24.4804 30 24.7348 30 25C30 25.2652 30.0894 25.5196 30.2486 25.7071C30.4077 25.8946 30.6236 26 30.8487 26H32.1513C32.3764 26 32.5923 25.8946 32.7514 25.7071C32.9106 25.5196 33 25.2652 33 25C33 24.7348 32.9106 24.4804 32.7514 24.2929C32.5923 24.1054 32.3764 24 32.1513 24Z" fill="#2B6BF3"/>
<path d="M36.1513 24H34.8487C34.6236 24 34.4077 24.1054 34.2486 24.2929C34.0894 24.4804 34 24.7348 34 25C34 25.2652 34.0894 25.5196 34.2486 25.7071C34.4077 25.8946 34.6236 26 34.8487 26H36.1513C36.3764 26 36.5923 25.8946 36.7514 25.7071C36.9106 25.5196 37 25.2652 37 25C37 24.7348 36.9106 24.4804 36.7514 24.2929C36.5923 24.1054 36.3764 24 36.1513 24Z" fill="#2B6BF3"/>
<path d="M28.1501 28H26.8499C26.6245 28 26.4083 28.1054 26.2489 28.2929C26.0895 28.4804 26 28.7348 26 29C26 29.2652 26.0895 29.5196 26.2489 29.7071C26.4083 29.8946 26.6245 30 26.8499 30H28.1501C28.3755 30 28.5917 29.8946 28.7511 29.7071C28.9105 29.5196 29 29.2652 29 29C29 28.7348 28.9105 28.4804 28.7511 28.2929C28.5917 28.1054 28.3755 28 28.1501 28Z" fill="#2B6BF3"/>
<path d="M32.1513 28H30.8487C30.6236 28 30.4077 28.1054 30.2486 28.2929C30.0894 28.4804 30 28.7348 30 29C30 29.2652 30.0894 29.5196 30.2486 29.7071C30.4077 29.8946 30.6236 30 30.8487 30H32.1513C32.3764 30 32.5923 29.8946 32.7514 29.7071C32.9106 29.5196 33 29.2652 33 29C33 28.7348 32.9106 28.4804 32.7514 28.2929C32.5923 28.1054 32.3764 28 32.1513 28Z" fill="#2B6BF3"/>
<path d="M36.1513 28H34.8487C34.6236 28 34.4077 28.1054 34.2486 28.2929C34.0894 28.4804 34 28.7348 34 29C34 29.2652 34.0894 29.5196 34.2486 29.7071C34.4077 29.8946 34.6236 30 34.8487 30H36.1513C36.3764 30 36.5923 29.8946 36.7514 29.7071C36.9106 29.5196 37 29.2652 37 29C37 28.7348 36.9106 28.4804 36.7514 28.2929C36.5923 28.1054 36.3764 28 36.1513 28Z" fill="#2B6BF3"/>
<path d="M37.3913 16.0863H27.8261V0.86953C27.8261 0.638917 27.7345 0.417748 27.5714 0.25468C27.4083 0.0916109 27.1871 0 26.9565 0H0.869567C0.638944 0 0.417766 0.0916109 0.254691 0.25468C0.0916161 0.417748 1.48094e-06 0.638917 1.48094e-06 0.86953V36.5203C-0.00025652 36.6601 0.0331996 36.7979 0.0975335 36.922C0.161867 37.0461 0.255182 37.1529 0.369567 37.2333L4.1 39.8419C4.24642 39.9448 4.42103 40 4.6 40C4.77897 40 4.95358 39.9448 5.1 39.8419L8.32609 37.5811L11.5522 39.8419C11.6986 39.9448 11.8732 40 12.0522 40C12.2311 40 12.4058 39.9448 12.5522 39.8419L15.7783 37.5811L19.0043 39.8419C19.1508 39.9448 19.3254 40 19.5043 40C19.6833 40 19.8579 39.9448 20.0043 39.8419L23.2304 37.5811L26.4565 39.8419C26.6031 39.9442 26.7777 39.9989 26.9565 39.9984C27.0962 39.9998 27.2339 39.9654 27.3565 39.8984C27.4976 39.8253 27.616 39.7149 27.6988 39.5792C27.7816 39.4436 27.8256 39.2878 27.8261 39.1289V33.0422H37.3913C38.0832 33.0422 38.7467 32.7673 39.2359 32.2781C39.7252 31.7889 40 31.1254 40 30.4336V18.6949C40 18.0031 39.7252 17.3396 39.2359 16.8503C38.7467 16.3611 38.0832 16.0863 37.3913 16.0863ZM26.087 4.78242H24.7565L26.087 3.45204V4.78242ZM26.087 2.226L23.5304 4.78242H20.8435L23.887 1.73906H26.087V2.226ZM1.73913 4.34765L4.34783 1.73906H7.04348L4 4.78242H1.73913V4.34765ZM8.26087 1.73906H10.9391L7.89565 4.78242H5.21739L8.26087 1.73906ZM12.1739 1.73906H14.8522L11.8087 4.78242H9.13044L12.1739 1.73906ZM16.087 1.73906H18.7652L15.7217 4.78242H13.0435L16.087 1.73906ZM20 1.73906H22.6783L19.6348 4.78242H16.9565L20 1.73906ZM3.13044 1.73906L1.73913 3.13031V1.73906H3.13044ZM26.087 37.4594L23.7304 35.8073C23.584 35.7044 23.4094 35.6491 23.2304 35.6491C23.0515 35.6491 22.8769 35.7044 22.7304 35.8073L19.5043 38.068L16.2783 35.8073C16.1318 35.7044 15.9572 35.6491 15.7783 35.6491C15.5993 35.6491 15.4247 35.7044 15.2783 35.8073L12.0522 38.068L8.82609 35.8073C8.67966 35.7044 8.50506 35.6491 8.32609 35.6491C8.14712 35.6491 7.97251 35.7044 7.82609 35.8073L4.6 38.068L1.73913 36.0855V6.52148H26.087V16.0863H25.6522C24.9603 16.0863 24.2968 16.3611 23.8075 16.8503C23.3183 17.3396 23.0435 18.0031 23.0435 18.6949V30.4336C23.0435 31.1254 23.3183 31.7889 23.8075 32.2781C24.2968 32.7673 24.9603 33.0422 25.6522 33.0422H26.087V37.4594ZM38.2609 30.4336C38.2609 30.6642 38.1693 30.8853 38.0062 31.0484C37.8431 31.2115 37.6219 31.3031 37.3913 31.3031H25.6522C25.4216 31.3031 25.2004 31.2115 25.0373 31.0484C24.8742 30.8853 24.7826 30.6642 24.7826 30.4336V18.6949C24.7826 18.4643 24.8742 18.2431 25.0373 18.08C25.2004 17.917 25.4216 17.8254 25.6522 17.8254H37.3913C37.6219 17.8254 37.8431 17.917 38.0062 18.08C38.1693 18.2431 38.2609 18.4643 38.2609 18.6949V30.4336Z" fill="#2B6BF3"/>
<path d="M21.05 23H3.95C3.69804 23 3.45641 23.1054 3.27825 23.2929C3.10009 23.4804 3 23.7348 3 24C3 24.2652 3.10009 24.5196 3.27825 24.7071C3.45641 24.8946 3.69804 25 3.95 25H21.05C21.302 25 21.5436 24.8946 21.7218 24.7071C21.8999 24.5196 22 24.2652 22 24C22 23.7348 21.8999 23.4804 21.7218 23.2929C21.5436 23.1054 21.302 23 21.05 23Z" fill="#2B6BF3"/>
<path d="M21.05 27H3.95C3.69804 27 3.45641 27.1054 3.27825 27.2929C3.10009 27.4804 3 27.7348 3 28C3 28.2652 3.10009 28.5196 3.27825 28.7071C3.45641 28.8946 3.69804 29 3.95 29H21.05C21.302 29 21.5436 28.8946 21.7218 28.7071C21.8999 28.5196 22 28.2652 22 28C22 27.7348 21.8999 27.4804 21.7218 27.2929C21.5436 27.1054 21.302 27 21.05 27Z" fill="#2B6BF3"/>
<path d="M21.05 31H3.95C3.69804 31 3.45641 31.1054 3.27825 31.2929C3.10009 31.4804 3 31.7348 3 32C3 32.2652 3.10009 32.5196 3.27825 32.7071C3.45641 32.8946 3.69804 33 3.95 33H21.05C21.302 33 21.5436 32.8946 21.7218 32.7071C21.8999 32.5196 22 32.2652 22 32C22 31.7348 21.8999 31.4804 21.7218 31.2929C21.5436 31.1054 21.302 31 21.05 31Z" fill="#2B6BF3"/>
<path d="M7.43797 16.915C6.62668 17.035 5.7076 16.55 5.16864 15.715C5.10325 15.5875 5.00823 15.4735 4.88972 15.3804C4.77121 15.2873 4.63185 15.2171 4.48064 15.1745C4.32944 15.1318 4.16976 15.1176 4.01192 15.1327C3.85409 15.1478 3.70161 15.192 3.56436 15.2623C3.42711 15.3327 3.30813 15.4276 3.21511 15.541C3.1221 15.6544 3.05712 15.7837 3.02438 15.9206C2.99165 16.0576 2.99188 16.199 3.02506 16.3358C3.05824 16.4727 3.12363 16.6018 3.21701 16.715C3.81108 17.6413 4.76058 18.3505 5.89482 18.715V20H8.16415V18.82C9.46335 18.525 10.8136 17.61 10.9724 16.32C11.2561 14.085 9.27045 13.5 8.63504 13.32C8.06771 13.16 7.63086 13.04 7.23373 12.945C6.18416 12.68 5.97992 12.61 5.76434 12.32C5.64314 12.1324 5.60852 11.9109 5.66768 11.7015C5.72683 11.492 5.87522 11.3106 6.08204 11.195C6.26491 11.1154 6.46393 11.0686 6.66749 11.0575C6.87106 11.0463 7.07511 11.071 7.26777 11.13C7.60018 11.203 7.91141 11.3369 8.1812 11.523C8.45099 11.7091 8.67328 11.9432 8.83361 12.21C8.96978 12.4467 9.20707 12.626 9.49327 12.7086C9.77947 12.7911 10.0911 12.77 10.3597 12.65C10.6283 12.53 10.8318 12.3209 10.9254 12.0686C11.0191 11.8164 10.9952 11.5417 10.859 11.305C10.2896 10.3551 9.32311 9.63784 8.16415 9.305V8H5.87213V9.145C5.4872 9.21396 5.12112 9.3481 4.7942 9.54C4.08698 9.94798 3.59123 10.5856 3.41485 11.3142C3.23847 12.0427 3.39574 12.8032 3.85243 13.43C4.54457 14.355 5.44663 14.58 6.58697 14.87C6.95574 14.965 7.38123 15.07 7.89183 15.22C8.69177 15.46 8.75985 15.605 8.69745 16.115C8.65773 16.395 8.07338 16.82 7.43797 16.915Z" fill="#2B6BF3"/>
</svg>
