<svg width="35" height="42" viewBox="0 0 35 42" fill="none" xmlns="http://www.w3.org/2000/svg">
<path d="M22.2574 19.6774C21.4 19.4883 20.5127 19.4883 19.6553 19.6774L18.1114 19.9421L16.897 7.48453C16.8189 6.77689 16.4783 6.12622 15.9447 5.66521C15.4112 5.2042 14.7248 4.96757 14.0256 5.00358C13.3265 5.03959 12.6671 5.34552 12.1821 5.85899C11.697 6.37246 11.4228 7.0548 11.4153 7.76685V26.8237C9.5272 25.7408 7.53666 24.854 5.47382 24.1769C5.06923 24.0306 4.63533 23.9884 4.21082 24.0541C3.7863 24.1198 3.38436 24.2913 3.04084 24.5534C2.69732 24.8154 2.4229 25.1599 2.24205 25.556C2.0612 25.9522 1.97954 26.3877 2.00435 26.8237C2.02256 27.2566 2.14131 27.679 2.35086 28.0562C2.56042 28.4335 2.85483 28.7549 3.20999 28.9941C5.48081 30.5851 7.52408 32.4882 9.28156 34.6494C10.0255 35.5479 10.9215 36.3038 11.927 36.8815C13.5457 37.8565 15.261 38.655 17.0445 39.2637C18.7184 39.7854 20.3038 40.565 21.7456 41.5752L22.1099 41.8399C22.2985 41.9744 22.532 42.0272 22.7589 41.9867C22.9858 41.9461 23.1876 41.8156 23.3199 41.6237C23.4522 41.4318 23.5041 41.1944 23.4642 40.9636C23.4244 40.7327 23.296 40.5275 23.1074 40.3929L22.7431 40.1371C21.1823 39.0306 19.4656 38.1709 17.6516 37.5874C15.9834 37.0192 14.3786 36.274 12.8638 35.364C12.0388 34.8857 11.302 34.2647 10.6867 33.5289C8.81764 31.2337 6.64608 29.2119 4.23348 27.5207C4.09754 27.4471 3.9833 27.3381 3.90251 27.2047C3.82172 27.0714 3.77729 26.9186 3.77378 26.762C3.76633 26.6154 3.79495 26.4692 3.85704 26.3368C3.91914 26.2043 4.01275 26.0896 4.1294 26.0032C4.24108 25.9154 4.37213 25.8567 4.51119 25.8321C4.65025 25.8075 4.79311 25.8178 4.92737 25.8621C7.34565 26.6297 9.64412 27.7437 11.7536 29.1706C11.8822 29.2701 12.0356 29.3312 12.1966 29.3467C12.3575 29.3623 12.5195 29.3319 12.6643 29.2588C12.8103 29.186 12.9332 29.073 13.0191 28.9326C13.105 28.7922 13.1503 28.6301 13.15 28.4647V7.76685C13.1565 7.50689 13.2592 7.25901 13.4376 7.07275C13.616 6.88649 13.857 6.77559 14.1123 6.76221C14.3676 6.74884 14.6185 6.83398 14.8148 7.0006C15.011 7.16723 15.1383 7.40308 15.171 7.66098L16.4807 21.1155C16.4929 21.2378 16.5301 21.3562 16.5899 21.463C16.6497 21.5699 16.7308 21.6628 16.8279 21.7359C16.9251 21.809 17.0363 21.8607 17.1542 21.8875C17.2722 21.9144 17.3943 21.9159 17.5129 21.8919L20.0282 21.3714C20.6372 21.2391 21.2668 21.2391 21.8757 21.3714L24.7988 22.0331C25.4524 22.1833 26.0644 22.4808 26.5899 22.9038C27.1153 23.3268 27.5407 23.8644 27.8345 24.4769L29.283 27.4501C29.9064 28.7373 30.2299 30.1531 30.2285 31.588C30.2269 32.5593 30.3523 33.5265 30.6014 34.4641C30.598 34.4934 30.598 34.5231 30.6014 34.5524L33.2903 41.4428C33.3566 41.6127 33.4732 41.7575 33.6239 41.857C33.7746 41.9566 33.9521 42.0061 34.1316 41.9987C34.2415 41.9989 34.3504 41.978 34.4525 41.9369C34.5585 41.8941 34.6552 41.8305 34.737 41.7497C34.8188 41.6689 34.8841 41.5724 34.9292 41.4659C34.9743 41.3594 34.9984 41.2448 34.9999 41.1288C35.0015 41.0129 34.9805 40.8977 34.9383 40.79L32.2668 33.9524C32.0626 33.1815 31.9605 32.3863 31.9632 31.588C31.9621 29.8922 31.5762 28.2195 30.8356 26.7002L29.3871 23.7182C28.9796 22.8704 28.3899 22.1266 27.6618 21.5417C26.9337 20.9568 26.0856 20.5458 25.1804 20.3391L22.2574 19.6774Z" fill="#FD466E"/>
<path d="M2.71875 10H8.15625C8.3966 10 8.62711 9.9122 8.79707 9.75592C8.96702 9.59964 9.0625 9.38768 9.0625 9.16667C9.0625 8.94565 8.96702 8.73369 8.79707 8.57741C8.62711 8.42113 8.3966 8.33333 8.15625 8.33333H2.71875C2.4784 8.33333 2.24789 8.24554 2.07793 8.08926C1.90798 7.93297 1.8125 7.72101 1.8125 7.5V2.5C1.8125 2.27899 1.90798 2.06702 2.07793 1.91074C2.24789 1.75446 2.4784 1.66667 2.71875 1.66667H26.2812C26.5216 1.66667 26.7521 1.75446 26.9221 1.91074C27.092 2.06702 27.1875 2.27899 27.1875 2.5V7.5C27.1875 7.72101 27.092 7.93297 26.9221 8.08926C26.7521 8.24554 26.5216 8.33333 26.2812 8.33333H20.8438C20.6034 8.33333 20.3729 8.42113 20.2029 8.57741C20.033 8.73369 19.9375 8.94565 19.9375 9.16667C19.9375 9.38768 20.033 9.59964 20.2029 9.75592C20.3729 9.9122 20.6034 10 20.8438 10H26.2812C27.0023 10 27.6938 9.73661 28.2037 9.26777C28.7136 8.79893 29 8.16304 29 7.5V2.5C29 1.83696 28.7136 1.20107 28.2037 0.732233C27.6938 0.263392 27.0023 0 26.2812 0L2.71875 0C1.99769 0 1.30617 0.263392 0.796304 0.732233C0.286439 1.20107 0 1.83696 0 2.5V7.5C0 8.16304 0.286439 8.79893 0.796304 9.26777C1.30617 9.73661 1.99769 10 2.71875 10Z" fill="#FD466E"/>
</svg>
