<svg width="39" height="32" viewBox="0 0 39 32" fill="none" xmlns="http://www.w3.org/2000/svg">
<path d="M13.0512 7.04654C12.8121 7.01911 12.5718 7.00384 12.3312 7.0008C10.8199 6.97794 9.34198 7.44779 8.11871 8.33996L0.889664 13.4471C0.61812 13.6455 0.39633 13.9048 0.241897 14.2044C0.0874638 14.504 0.00464025 14.8357 -1.01048e-07 15.1731L-0.000867845 30C-0.00639572 30.5346 0.199945 30.9495 0.571434 31.3322C0.942923 31.7149 1.45016 31.9341 1.98209 31.9418L6.63731 32H6.85662C9.39033 31.9969 11.8948 31.4555 14.2057 30.4113C15.5914 29.7733 16.8526 28.8916 17.9298 27.8078C18.5464 27.1954 19.2325 26.658 19.974 26.2066L28.1589 21.2159C28.8948 20.7705 29.459 20.0878 29.7595 19.279C30.0601 18.4702 30.0793 17.583 29.8141 16.7618C29.567 16.0291 29.1002 15.3914 28.4777 14.9364C27.8553 14.4813 27.1078 14.2313 26.3382 14.2207C25.8735 14.2156 25.4118 14.2974 24.9768 14.4619L15.4843 18.0635C15.3519 18.1132 15.2118 18.1385 15.0705 18.1384C14.8911 18.1356 14.7147 18.0922 14.5542 18.0116C14.3938 17.931 14.2534 17.8151 14.1436 17.6726C13.9715 17.431 13.8868 17.1374 13.9036 16.8408L13.9657 8.08211C13.9673 7.8265 13.8748 7.57931 13.7059 7.38813C13.5371 7.19695 13.3039 7.07528 13.0512 7.04654ZM14.996 20.2053C15.4 20.2113 15.8015 20.1407 16.1795 19.9974H16.2085L25.701 16.3999C25.8927 16.3274 26.0961 16.2908 26.301 16.2918C26.6507 16.2961 26.9904 16.4098 27.2729 16.617C27.5554 16.8242 27.7667 17.1146 27.8775 17.448C27.9912 17.8235 27.9754 18.2265 27.8327 18.5918C27.69 18.9572 27.4288 19.2634 27.0913 19.4609L18.9105 24.4516C18.0309 24.9874 17.217 25.6253 16.4857 26.3522C15.5783 27.2635 14.516 28.0044 13.3491 28.5398C11.2453 29.4912 8.97169 30.0253 6.66489 30H1.99989V15.1731L9.32286 10.016C10.0747 9.46724 10.9654 9.14289 11.8925 9.08025L11.7974 16.8158C11.7766 17.5831 12.0175 18.3345 12.4801 18.9452C12.7788 19.3312 13.16 19.6448 13.5954 19.8629C14.0309 20.0811 14.5095 20.1981 14.996 20.2053Z" fill="#FFDD2D"/>
<path d="M19.1746 31.7434C19.7741 31.6882 20.3487 31.4877 20.8436 31.1609C21.4975 31.7048 22.3374 32.0031 23.2058 32C23.3199 32 23.4355 32 23.5524 32C24.0395 31.9533 24.5112 31.8117 24.9382 31.584C25.3653 31.3562 25.7385 31.0472 26.0345 30.6761C26.5795 30.8998 27.1746 30.9902 27.7657 30.9389C28.3567 30.8876 28.9249 30.6963 29.4184 30.3825C29.9119 30.0687 30.315 29.6423 30.591 29.1421C30.8671 28.642 31.0072 28.0841 30.9987 27.5193C30.9987 27.4921 30.9987 27.4636 30.9987 27.4337L30.6392 23.9632C30.6319 23.8261 30.5955 23.6917 30.5321 23.5684C30.4686 23.4451 30.3796 23.3353 30.2702 23.2457C30.1609 23.1561 30.0336 23.0885 29.8961 23.0471C29.7585 23.0058 29.6136 22.9914 29.47 23.0049C29.3264 23.0185 29.1872 23.0596 29.0609 23.1258C28.9345 23.1921 28.8236 23.2821 28.7348 23.3903C28.6461 23.4986 28.5814 23.6229 28.5446 23.7557C28.5078 23.8885 28.4997 24.027 28.5209 24.1628L28.8761 27.5844C28.8765 27.8577 28.7902 28.1246 28.6285 28.3504C28.4668 28.5761 28.2373 28.7502 27.9699 28.8496C27.7026 28.9491 27.4099 28.9695 27.1303 28.908C26.8506 28.8465 26.5969 28.706 26.4025 28.505C26.2711 28.3734 26.1049 28.2778 25.9214 28.2281C25.7378 28.1785 25.5437 28.1767 25.3592 28.2229C25.1746 28.2691 25.0065 28.3616 24.8724 28.4908C24.7383 28.6199 24.643 28.781 24.5966 28.9572C24.5283 29.2333 24.3709 29.4823 24.1466 29.6691C23.9223 29.8559 23.6422 29.9714 23.3456 29.9992C23.0489 30.027 22.7506 29.9659 22.4922 29.8243C22.2339 29.6828 22.0285 29.4679 21.9049 29.2097C21.8232 29.046 21.697 28.906 21.5393 28.8045C21.3816 28.7029 21.1982 28.6434 21.0082 28.6322C20.8181 28.6209 20.6284 28.6584 20.4587 28.7406C20.289 28.8228 20.1456 28.9468 20.0433 29.0997C19.9277 29.2775 19.7707 29.4277 19.5845 29.5386C19.3982 29.6494 19.1877 29.7181 18.9692 29.7392C18.6854 29.7657 18.4243 29.8984 18.2434 30.1081C18.0624 30.3178 17.9763 30.5873 18.0042 30.8574C18.032 31.1275 18.1713 31.376 18.3916 31.5482C18.6119 31.7205 18.8951 31.8024 19.1789 31.7759L19.1746 31.7434Z" fill="#FFDD2D"/>
<path d="M35.9329 1.03372e-05H19.0535C18.2437 0.00108452 17.4674 0.337174 16.8948 0.93457C16.3222 1.53197 16.0001 2.3419 15.999 3.18675V13.8227C15.999 14.0919 16.1015 14.35 16.2839 14.5404C16.4664 14.7307 16.7138 14.8376 16.9718 14.8376C17.2298 14.8376 17.4772 14.7307 17.6596 14.5404C17.8421 14.35 17.9445 14.0919 17.9445 13.8227V7.41273H37.0535V17.8051C37.0525 18.1138 36.9345 18.4095 36.7253 18.6278C36.5161 18.8461 36.2326 18.9692 35.9368 18.9702H31.8628C31.6048 18.9702 31.3574 19.0772 31.175 19.2675C30.9926 19.4578 30.8901 19.7159 30.8901 19.9851C30.8901 20.2543 30.9926 20.5124 31.175 20.7027C31.3574 20.8931 31.6048 21 31.8628 21H35.9368C36.3387 21.0005 36.7368 20.9184 37.1083 20.7583C37.4799 20.5982 37.8175 20.3632 38.1019 20.0669C38.3863 19.7705 38.6119 19.4186 38.7658 19.0312C38.9198 18.6438 38.999 18.2286 38.999 17.8092V3.19487C38.9995 2.77482 38.9205 2.3588 38.7666 1.97068C38.6126 1.58255 38.3867 1.22996 38.1019 0.933131C37.817 0.636301 37.4788 0.401075 37.1065 0.240947C36.7343 0.0808192 36.3355 -0.00105883 35.9329 1.03372e-05ZM17.9368 5.39514V3.18675C17.9378 2.87808 18.0558 2.58235 18.265 2.36409C18.4742 2.14582 18.7576 2.02273 19.0535 2.02166H35.9329C36.2294 2.02166 36.5139 2.14428 36.7239 2.36266C36.9339 2.58104 37.0525 2.87737 37.0535 3.18675V5.39514H17.9368Z" fill="#FFDD2D"/>
</svg>
