<svg width="24" height="24" viewBox="0 0 24 24" fill="none" xmlns="http://www.w3.org/2000/svg">
<path d="M5.28914 18.711C4.89861 18.3205 4.9162 17.6697 5.32842 17.2575L17.2707 5.31527C17.6829 4.90305 18.3336 4.88546 18.7242 5.27598C19.1147 5.66651 19.0971 6.31726 18.6849 6.72948L6.74264 18.6717C6.33042 19.0839 5.67966 19.1015 5.28914 18.711Z" fill="#C2D2F4"/>
<path d="M5.28914 18.711C4.89861 18.3205 4.9162 17.6697 5.32842 17.2575L17.2707 5.31527C17.6829 4.90305 18.3336 4.88546 18.7242 5.27598C19.1147 5.66651 19.0971 6.31726 18.6849 6.72948L6.74264 18.6717C6.33042 19.0839 5.67966 19.1015 5.28914 18.711Z" fill="#B7C6E7"/>
<path d="M5.28911 5.28914C5.67963 4.89861 6.33041 4.91622 6.74265 5.32846L18.6856 17.2714C19.0978 17.6836 19.1154 18.3344 18.7249 18.7249C18.3344 19.1155 17.6836 19.0979 17.2714 18.6856L5.32844 6.74268C4.91619 6.33043 4.89858 5.67966 5.28911 5.28914Z" fill="#C2D2F4"/>
<path d="M5.28911 5.28914C5.67963 4.89861 6.33041 4.91622 6.74265 5.32846L18.6856 17.2714C19.0978 17.6836 19.1154 18.3344 18.7249 18.7249C18.3344 19.1155 17.6836 19.0979 17.2714 18.6856L5.32844 6.74268C4.91619 6.33043 4.89858 5.67966 5.28911 5.28914Z" fill="#B7C6E7"/>
</svg>
